<?xml version="1.0" encoding="UTF-8"?>
<svg version="1.1" xmlns="http://www.w3.org/2000/svg" width="546" height="457">
<path d="M0 0 C1.45792884 -0.05399736 2.91642712 -0.09279177 4.375 -0.125 C5.18710938 -0.14820313 5.99921875 -0.17140625 6.8359375 -0.1953125 C9 0 9 0 11 2 C11.24050903 4.9359436 11.24050903 4.9359436 11.22705078 8.74462891 C11.22734283 9.43742447 11.22763489 10.13022003 11.22793579 10.8440094 C11.22654031 13.13832034 11.21096919 15.43230816 11.1953125 17.7265625 C11.19158314 19.31553978 11.1887358 20.90451936 11.18673706 22.49349976 C11.17909453 26.67914154 11.15944081 30.8646449 11.1373291 35.05023193 C11.11688396 39.31992724 11.1077382 43.58964487 11.09765625 47.859375 C11.07619543 56.23964691 11.04205211 64.61980625 11 73 C11.81267334 72.99476318 12.62534668 72.98952637 13.46264648 72.98413086 C17.12092322 72.96343006 20.77918767 72.95036197 24.4375 72.9375 C25.71689453 72.92912109 26.99628906 72.92074219 28.31445312 72.91210938 C29.52939453 72.90888672 30.74433594 72.90566406 31.99609375 72.90234375 C33.12200928 72.89710693 34.2479248 72.89187012 35.40795898 72.88647461 C38 73 38 73 39 74 C39.00808685 73.15475266 39.01617371 72.30950531 39.02450562 71.43864441 C39.10240451 63.47801294 39.18968085 55.51755168 39.28752708 47.5571394 C39.33750068 43.46447841 39.38383052 39.37184337 39.421875 35.27905273 C39.45871454 31.33023742 39.50507065 27.38163862 39.55806351 23.43300819 C39.57661459 21.92554835 39.59171993 20.41804209 39.60334396 18.91051292 C39.62019451 16.80103701 39.64922559 14.69205772 39.68115234 12.58276367 C39.69447601 11.38141281 39.70779968 10.18006195 39.7215271 8.94230652 C40 6 40 6 42 3 C43.64363134 2.27840576 45.31050386 1.60648579 47 1 C47.33 0.67 47.66 0.34 48 0 C52.36287975 -0.24277048 56.73145178 -0.22853591 61.1003418 -0.24023438 C63.29319551 -0.24991478 65.48510191 -0.28091227 67.67773438 -0.3125 C69.0729111 -0.31903249 70.46809453 -0.32428199 71.86328125 -0.328125 C73.77040894 -0.34214355 73.77040894 -0.34214355 75.71606445 -0.35644531 C79.16545799 0.01795916 80.52436514 0.64299336 83 3 C83.33 2.01 83.66 1.02 84 0 C88.45821166 -0.08674429 92.91620804 -0.14030513 97.375 -0.1875 C98.64601563 -0.21263672 99.91703125 -0.23777344 101.2265625 -0.26367188 C103.04414063 -0.27817383 103.04414063 -0.27817383 104.8984375 -0.29296875 C106.01911621 -0.3086792 107.13979492 -0.32438965 108.29443359 -0.34057617 C109.18727051 -0.22818604 110.08010742 -0.1157959 111 0 C113.29013653 3.4352048 113.17842973 4.985331 113 9 C113.61875 9.28875 114.2375 9.5775 114.875 9.875 C117 11 117 11 119 13 C121.06402968 12.51294288 121.06402968 12.51294288 123 11 C123.81870185 7.43793339 123.81870185 7.43793339 124 4 C124.969375 3.71125 125.93875 3.4225 126.9375 3.125 C130.10664203 2.35785318 130.10664203 2.35785318 131 0 C134.96930989 -0.02465881 138.93859034 -0.04284023 142.90795898 -0.05493164 C144.25920386 -0.05997057 145.61044326 -0.06680177 146.96166992 -0.07543945 C148.90020434 -0.08752419 150.838778 -0.09269828 152.77734375 -0.09765625 C154.52905884 -0.10551147 154.52905884 -0.10551147 156.31616211 -0.11352539 C159 0 159 0 160 1 C160.14115161 3.67058851 160.04247107 6.32432238 160 9 C160.9590625 9.2165625 160.9590625 9.2165625 161.9375 9.4375 C164 10 164 10 165 11 C165.09436529 13.23929886 165.11742327 15.4816175 165.11352539 17.72290039 C165.11367142 18.4253035 165.11381744 19.1277066 165.1139679 19.85139465 C165.11326872 22.18351278 165.10547617 24.515552 165.09765625 26.84765625 C165.09579208 28.46048438 165.09436818 30.07331307 165.09336853 31.68614197 C165.08954323 35.93915357 165.07971285 40.19213124 165.06866455 44.44512939 C165.05845069 48.7817743 165.05387096 53.11842467 165.04882812 57.45507812 C165.03809059 65.97006769 165.02101403 74.48502963 165 83 C153.31632653 88.10544218 153.31632653 88.10544218 147 86 C146.00520292 78.61343587 145.88163718 71.38444355 145.9375 63.9375 C145.94201172 62.78572266 145.94652344 61.63394531 145.95117188 60.44726562 C145.96285574 57.63145482 145.97923719 54.81575602 146 52 C142.7 51.67 139.4 51.34 136 51 C136.01047363 51.9286084 136.02094727 52.8572168 136.03173828 53.81396484 C136.06579204 57.2542569 136.09088493 60.69437027 136.10986328 64.13476562 C136.11993043 65.6247032 136.13358518 67.11462097 136.15087891 68.60449219 C136.17509653 70.74419028 136.18647564 72.88362753 136.1953125 75.0234375 C136.20578613 76.31169434 136.21625977 77.59995117 136.22705078 78.92724609 C136 82 136 82 134 84 C131.375 84.125 131.375 84.125 129 84 C129 84.66 129 85.32 129 86 C123.71502591 87.05699482 123.71502591 87.05699482 121 87 C118.5 85.0625 118.5 85.0625 117 83 C115.989375 83.474375 114.97875 83.94875 113.9375 84.4375 C109.27489695 86.43305627 104.92378848 87.64126283 100 86 C98.56655548 83.13311096 98.83545941 80.64323922 98.79467773 77.43896484 C98.78477814 76.76567642 98.77487854 76.092388 98.76467896 75.3986969 C98.73304885 73.16947974 98.70830066 70.94024126 98.68359375 68.7109375 C98.66302552 67.16679322 98.64202908 65.62265459 98.62062073 64.07852173 C98.56538651 60.01135833 98.51598322 55.94414401 98.46777344 51.87689209 C98.41756825 47.72777771 98.36187707 43.57873741 98.30664062 39.4296875 C98.19904254 31.28652095 98.09760126 23.14329248 98 15 C95.03 15 92.06 15 89 15 C88.98969254 15.84968857 88.97938507 16.69937714 88.96876526 17.57481384 C88.87096311 25.56543941 88.76847382 33.55598793 88.66066074 41.54648495 C88.60539417 45.65490417 88.55196835 49.76333046 88.50268555 53.87182617 C88.45509687 57.83353126 88.40275633 61.79514718 88.34705925 65.75674629 C88.32661069 67.27145747 88.30790183 68.78619312 88.29092598 70.30094719 C88.26693701 72.41548426 88.2368755 74.52985135 88.20532227 76.64428711 C88.18977798 77.85007919 88.1742337 79.05587128 88.15821838 80.29820251 C88 83 88 83 87 84 C85.00041636 84.04080783 82.99954746 84.04254356 81 84 C81 84.66 81 85.32 81 86 C79.35425434 86.02688151 77.70838587 86.04634123 76.0625 86.0625 C75.14597656 86.07410156 74.22945313 86.08570313 73.28515625 86.09765625 C71 86 71 86 70 85 C69.87598086 82.82268611 69.8219849 80.64136546 69.79467773 78.46069336 C69.78477814 77.77779739 69.77487854 77.09490143 69.76467896 76.39131165 C69.73298065 74.12419147 69.70827387 71.85705031 69.68359375 69.58984375 C69.6630314 68.02184999 69.64203512 66.45386187 69.62062073 64.88587952 C69.56532576 60.75129752 69.51594938 56.61666489 69.46777344 52.48199463 C69.41761247 48.26594517 69.36189826 44.04996957 69.30664062 39.83398438 C69.1989683 31.55605197 69.09754365 23.27805792 69 15 C64.05 14.505 64.05 14.505 59 14 C59.00444122 14.84746796 59.00888245 15.69493591 59.01345825 16.56808472 C59.05348518 24.54359952 59.08395899 32.51908073 59.10362434 40.49467278 C59.11407426 44.59528757 59.12825537 48.69581958 59.15087891 52.79638672 C59.1725644 56.75155581 59.18455952 60.70664511 59.18975449 64.66186905 C59.19345799 66.17299786 59.20068975 67.68412217 59.21146011 69.19521713 C59.22591823 71.30716232 59.22798037 73.41877524 59.22705078 75.53076172 C59.231492 76.73433319 59.23593323 77.93790466 59.24050903 79.177948 C59 82 59 82 57 84 C52.04636126 85.9102267 47.63017996 87.33727861 42.375 86.25 C40 85 40 85 39 84 C38.00129883 84.31928467 37.00259766 84.63856934 35.97363281 84.9675293 C30.09522832 86.64071153 24.0344869 86.56237238 17.96484375 86.74291992 C15.74114983 86.81277803 13.51952281 86.90867973 11.296875 87.00585938 C9.88026086 87.05366605 8.46359414 87.09994448 7.046875 87.14453125 C5.12633301 87.21184448 5.12633301 87.21184448 3.16699219 87.28051758 C0 87 0 87 -1.92871094 85.65893555 C-3.396833 83.38548765 -3.21462259 81.64701199 -3 79 C-4.32 78.34 -5.64 77.68 -7 77 C-7.02312484 67.49925675 -7.0409158 57.99852312 -7.05181217 48.49775791 C-7.05704069 44.08662996 -7.06413777 39.6755212 -7.07543945 35.2644043 C-7.08626944 31.01098885 -7.09227707 26.75759191 -7.09487724 22.50416374 C-7.09673129 20.87778367 -7.10035152 19.25140466 -7.10573006 17.62503242 C-7.11294198 15.35489807 -7.11399088 13.08484115 -7.11352539 10.81469727 C-7.115746 9.52008072 -7.11796661 8.22546417 -7.12025452 6.89161682 C-7 4 -7 4 -6 3 C-4.33382885 2.95936168 -2.66611905 2.957279 -1 3 C-0.67 2.01 -0.34 1.02 0 0 Z M136 15 C135.97112186 18.47914941 135.95324313 21.95826831 135.9375 25.4375 C135.92912109 26.43072266 135.92074219 27.42394531 135.91210938 28.44726562 C135.90888672 29.39150391 135.90566406 30.33574219 135.90234375 31.30859375 C135.89710693 32.18314209 135.89187012 33.05769043 135.88647461 33.95874023 C135.77215191 35.99440206 135.77215191 35.99440206 137 37 C138.51928038 37.07179964 140.04167482 37.08392007 141.5625 37.0625 C142.80193359 37.04896484 142.80193359 37.04896484 144.06640625 37.03515625 C144.70449219 37.02355469 145.34257812 37.01195312 146 37 C147.18955012 32.75321709 147.18382291 28.75809468 147.1875 24.375 C147.19974609 23.59898437 147.21199219 22.82296875 147.22460938 22.0234375 C147.22984167 20.01423638 147.12248735 18.00547086 147 16 C145.05765911 13.61214724 145.05765911 13.61214724 141.5 13.8125 C138.15035297 13.75868763 138.15035297 13.75868763 136 15 Z " fill="#FBAF3D" transform="translate(198,196)"/>
<path d="M0 0 C0.9075 0.00257813 1.815 0.00515625 2.75 0.0078125 C4.11125 0.00394531 4.11125 0.00394531 5.5 0 C7.75 0.1328125 7.75 0.1328125 8.75 1.1328125 C8.83851529 3.72640572 8.86525945 6.29320941 8.84765625 8.88671875 C8.8462413 9.66216537 8.84482635 10.437612 8.84336853 11.23655701 C8.83775345 13.72284744 8.82519846 16.2090491 8.8125 18.6953125 C8.80748694 20.37695183 8.8029237 22.05859256 8.79882812 23.74023438 C8.78777913 27.87112816 8.77050445 32.00195526 8.75 36.1328125 C12.05 36.1328125 15.35 36.1328125 18.75 36.1328125 C18.77505615 35.2042041 18.8001123 34.2755957 18.82592773 33.31884766 C18.92097932 29.87845446 19.02021707 26.43823537 19.12231445 22.99804688 C19.16566589 21.50818609 19.20734084 20.01827555 19.24731445 18.52832031 C19.30501215 16.38851923 19.36870755 14.24896865 19.43359375 12.109375 C19.47025146 10.82111816 19.50690918 9.53286133 19.54467773 8.20556641 C19.75 5.1328125 19.75 5.1328125 20.75 3.1328125 C22.73723268 2.42900093 24.73777953 1.7616314 26.75 1.1328125 C27.08 0.8028125 27.41 0.4728125 27.75 0.1328125 C29.74609375 -0.0703125 29.74609375 -0.0703125 32.1875 -0.1171875 C32.99058594 -0.14296875 33.79367187 -0.16875 34.62109375 -0.1953125 C35.32363281 -0.08703125 36.02617187 0.02125 36.75 0.1328125 C39.17976738 3.77746357 39.07287722 6.53975579 39.0859375 10.7578125 C39.0925943 11.50111816 39.0992511 12.24442383 39.10610962 13.01025391 C39.11622576 14.58037849 39.12092696 16.15054598 39.12060547 17.72070312 C39.1249847 20.12441529 39.1613275 22.5262995 39.19921875 24.9296875 C39.20508596 26.45572289 39.20905599 27.98176699 39.2109375 29.5078125 C39.22530853 30.22662598 39.23967957 30.94543945 39.25448608 31.68603516 C39.23583984 33.71875 39.23583984 33.71875 38.75 37.1328125 C36.75244141 38.953125 36.75244141 38.953125 34.75 40.1328125 C34.08333333 42.6328125 34.08333333 42.6328125 34.75 45.1328125 C35.41153076 45.52138428 36.07306152 45.90995605 36.75463867 46.31030273 C38.75 48.1328125 38.75 48.1328125 39.2199707 51.56274414 C39.22609134 52.97288266 39.20996892 54.38323143 39.17578125 55.79296875 C39.17249313 56.53864609 39.16920502 57.28432343 39.16581726 58.05259705 C39.15540282 59.62703187 39.13546337 61.20142844 39.10668945 62.77563477 C39.06260013 65.18982951 39.0452525 67.60303056 39.03320312 70.01757812 C39.01977942 71.54688939 39.00485655 73.07618839 38.98828125 74.60546875 C38.98089432 75.32944351 38.97350739 76.05341827 38.96589661 76.79933167 C38.86838541 81.89604167 38.86838541 81.89604167 37.75 84.1328125 C35.77 84.1328125 33.79 84.1328125 31.75 84.1328125 C31.75 84.7928125 31.75 85.4528125 31.75 86.1328125 C24.25 87.3828125 24.25 87.3828125 19.75 85.1328125 C19.75 73.9128125 19.75 62.6928125 19.75 51.1328125 C14.8 51.6278125 14.8 51.6278125 9.75 52.1328125 C9.42 62.3628125 9.09 72.5928125 8.75 83.1328125 C0.12681159 86.82846467 0.12681159 86.82846467 -5.25 87.1328125 C-6.57 86.4728125 -7.89 85.8128125 -9.25 85.1328125 C-9.25 73.5828125 -9.25 62.0328125 -9.25 50.1328125 C-7.27 49.6378125 -7.27 49.6378125 -5.25 49.1328125 C-5.51393501 45.70050802 -5.51393501 45.70050802 -6.25 42.1328125 C-7.24 41.4728125 -8.23 40.8128125 -9.25 40.1328125 C-9.5167616 37.36652335 -9.59804189 34.82661619 -9.54296875 32.0625 C-9.53872391 31.26627228 -9.53447906 30.47004456 -9.53010559 29.64968872 C-9.51328834 27.10205521 -9.47563179 24.55520761 -9.4375 22.0078125 C-9.42245705 20.28256349 -9.40876796 18.55730211 -9.39648438 16.83203125 C-9.36337501 12.59865468 -9.31157285 8.36586691 -9.25 4.1328125 C-8.280625 3.6584375 -7.31125 3.1840625 -6.3125 2.6953125 C-1.16440239 0.06873209 -1.16440239 0.06873209 0 0 Z " fill="#F6A93E" transform="translate(373.25,195.8671875)"/>
<path d="M0 0 C3.96930989 -0.02465881 7.93859034 -0.04284023 11.90795898 -0.05493164 C13.25920386 -0.05997057 14.61044326 -0.06680177 15.96166992 -0.07543945 C17.90020434 -0.08752419 19.838778 -0.09269828 21.77734375 -0.09765625 C23.52905884 -0.10551147 23.52905884 -0.10551147 25.31616211 -0.11352539 C28 0 28 0 29 1 C29.14115161 3.67058851 29.04247107 6.32432238 29 9 C29.9590625 9.2165625 29.9590625 9.2165625 30.9375 9.4375 C33 10 33 10 34 11 C34.09436529 13.23929886 34.11742327 15.4816175 34.11352539 17.72290039 C34.11367142 18.4253035 34.11381744 19.1277066 34.1139679 19.85139465 C34.11326872 22.18351278 34.10547617 24.515552 34.09765625 26.84765625 C34.09579208 28.46048438 34.09436818 30.07331307 34.09336853 31.68614197 C34.08954323 35.93915357 34.07971285 40.19213124 34.06866455 44.44512939 C34.05845069 48.7817743 34.05387096 53.11842467 34.04882812 57.45507812 C34.03809059 65.97006769 34.02101403 74.48502963 34 83 C22.31632653 88.10544218 22.31632653 88.10544218 16 86 C15.00520292 78.61343587 14.88163718 71.38444355 14.9375 63.9375 C14.94201172 62.78572266 14.94652344 61.63394531 14.95117188 60.44726562 C14.96285574 57.63145482 14.97923719 54.81575602 15 52 C11.7 51.67 8.4 51.34 5 51 C5.01047363 51.9286084 5.02094727 52.8572168 5.03173828 53.81396484 C5.06579204 57.2542569 5.09088493 60.69437027 5.10986328 64.13476562 C5.11993043 65.6247032 5.13358518 67.11462097 5.15087891 68.60449219 C5.17509653 70.74419028 5.18647564 72.88362753 5.1953125 75.0234375 C5.20578613 76.31169434 5.21625977 77.59995117 5.22705078 78.92724609 C5 82 5 82 3 84 C1.01178687 84.39764263 -0.98944339 84.73775349 -3 85 C-3 84.34 -3 83.68 -3 83 C-3.99 83 -4.98 83 -6 83 C-6.0257611 76.10303564 -6.04303534 69.20608408 -6.05493164 62.30908203 C-6.05990108 59.97216325 -6.06667894 57.63524748 -6.07543945 55.29833984 C-6.12824497 40.82962956 -5.91058339 26.44203741 -5 12 C-4.01 12 -3.02 12 -2 12 C-2 11.34 -2 10.68 -2 10 C-1.34 10 -0.68 10 0 10 C-0.185625 8.72125 -0.37125 7.4425 -0.5625 6.125 C-1.125 2.25 -1.125 2.25 0 0 Z M5 15 C4.97112186 18.47914941 4.95324313 21.95826831 4.9375 25.4375 C4.92912109 26.43072266 4.92074219 27.42394531 4.91210938 28.44726562 C4.90888672 29.39150391 4.90566406 30.33574219 4.90234375 31.30859375 C4.89710693 32.18314209 4.89187012 33.05769043 4.88647461 33.95874023 C4.77215191 35.99440206 4.77215191 35.99440206 6 37 C7.51928038 37.07179964 9.04167482 37.08392007 10.5625 37.0625 C11.80193359 37.04896484 11.80193359 37.04896484 13.06640625 37.03515625 C13.70449219 37.02355469 14.34257812 37.01195312 15 37 C16.18955012 32.75321709 16.18382291 28.75809468 16.1875 24.375 C16.19974609 23.59898437 16.21199219 22.82296875 16.22460938 22.0234375 C16.22984167 20.01423638 16.12248735 18.00547086 16 16 C14.05765911 13.61214724 14.05765911 13.61214724 10.5 13.8125 C7.15035297 13.75868763 7.15035297 13.75868763 5 15 Z " fill="#ECA841" transform="translate(329,196)"/>
<path d="M0 0 C1.12019531 -0.00128906 2.24039062 -0.00257813 3.39453125 -0.00390625 C4.57402344 -0.00003906 5.75351562 0.00382813 6.96875 0.0078125 C8.73798828 0.00201172 8.73798828 0.00201172 10.54296875 -0.00390625 C12.22326172 -0.00197266 12.22326172 -0.00197266 13.9375 0 C14.97326172 0.00112793 16.00902344 0.00225586 17.07617188 0.00341797 C19.46875 0.1328125 19.46875 0.1328125 20.46875 1.1328125 C20.83635731 3.46099214 21.17116581 5.794651 21.46875 8.1328125 C22.45875 8.4628125 23.44875 8.7928125 24.46875 9.1328125 C25.7031058 16.78667268 25.59591362 24.39790812 25.56640625 32.1328125 C25.5645381 33.57869416 25.56311607 35.02457646 25.56211853 36.47045898 C25.55832463 40.25154407 25.54852151 44.03258994 25.53741455 47.81365967 C25.52713274 51.6817573 25.52260649 55.54986135 25.51757812 59.41796875 C25.50689604 66.98960109 25.48985777 74.56120127 25.46875 82.1328125 C23.55529673 82.66533016 21.6378205 83.18340733 19.71875 83.6953125 C18.65140625 83.98535156 17.5840625 84.27539062 16.484375 84.57421875 C13.62228343 85.10437302 12.11801665 85.26555969 9.46875 84.1328125 C8.03530548 81.26592346 8.30420941 78.77605172 8.26342773 75.57177734 C8.25352814 74.89848892 8.24362854 74.2252005 8.23342896 73.5315094 C8.20179885 71.30229224 8.17705066 69.07305376 8.15234375 66.84375 C8.13177552 65.29960572 8.11077908 63.75546709 8.08937073 62.21133423 C8.03413651 58.14417083 7.98473322 54.07695651 7.93652344 50.00970459 C7.88631825 45.86059021 7.83062707 41.71154991 7.77539062 37.5625 C7.66779254 29.41933345 7.56635126 21.27610498 7.46875 13.1328125 C4.49875 13.1328125 1.52875 13.1328125 -1.53125 13.1328125 C-1.54155746 13.98250107 -1.55186493 14.83218964 -1.56248474 15.70762634 C-1.66028689 23.69825191 -1.76277618 31.68880043 -1.87058926 39.67929745 C-1.92585583 43.78771667 -1.97928165 47.89614296 -2.02856445 52.00463867 C-2.07615313 55.96634376 -2.12849367 59.92795968 -2.18419075 63.88955879 C-2.20463931 65.40426997 -2.22334817 66.91900562 -2.24032402 68.43375969 C-2.26431299 70.54829676 -2.2943745 72.66266385 -2.32592773 74.77709961 C-2.34147202 75.98289169 -2.3570163 77.18868378 -2.37303162 78.43101501 C-2.53125 81.1328125 -2.53125 81.1328125 -3.53125 82.1328125 C-11.05363806 82.37161847 -11.05363806 82.37161847 -13.53125 81.1328125 C-13.53125 57.7028125 -13.53125 34.2728125 -13.53125 10.1328125 C-12.54125 10.4628125 -11.55125 10.7928125 -10.53125 11.1328125 C-7.74909407 9.07643638 -7.51436639 8.03488754 -6.90625 4.5078125 C-6.720625 2.8371875 -6.720625 2.8371875 -6.53125 1.1328125 C-4.78579395 -0.61264355 -2.37000783 0.0025809 0 0 Z " fill="#FAAA3F" transform="translate(288.53125,197.8671875)"/>
<path d="M0 0 C0.73541016 0.00202423 1.47082031 0.00404846 2.22851562 0.00613403 C2.97939453 0.00517731 3.73027344 0.00422058 4.50390625 0.00323486 C6.09440189 0.00255315 7.6849003 0.00440682 9.27539062 0.00857544 C11.71816217 0.01392386 14.16074984 0.00863019 16.60351562 0.00222778 C18.1451827 0.00288857 19.68684966 0.00416973 21.22851562 0.00613403 C21.96392578 0.0041098 22.69933594 0.00208557 23.45703125 0 C28.61356402 0.02399493 28.61356402 0.02399493 29.72851562 1.13894653 C29.80057074 2.82503619 29.8123763 4.51395313 29.79101562 6.20144653 C29.78199219 7.1205481 29.77296875 8.03964966 29.76367188 8.98660278 C29.75207031 9.69687622 29.74046875 10.40714966 29.72851562 11.13894653 C22.69641206 14.37371417 16.62338439 15.29854841 8.85351562 15.20144653 C6.50226563 15.18082153 4.15101563 15.16019653 1.72851562 15.13894653 C1.72851562 22.06894653 1.72851562 28.99894653 1.72851562 36.13894653 C7.60705442 36.4281556 7.60705442 36.4281556 13.48608398 36.70706177 C14.21448486 36.74516968 14.94288574 36.78327759 15.69335938 36.82254028 C16.81665649 36.87752686 16.81665649 36.87752686 17.96264648 36.93362427 C19.72851562 37.13894653 19.72851562 37.13894653 20.72851562 38.13894653 C20.89648438 40.13504028 20.89648438 40.13504028 20.91601562 42.57644653 C20.93019531 43.37953247 20.944375 44.18261841 20.95898438 45.01004028 C20.72851562 47.13894653 20.72851562 47.13894653 18.72851562 49.13894653 C14.59874391 51.09515419 10.99099147 51.23615537 6.50195312 51.19363403 C5.42091309 51.18573853 4.33987305 51.17784302 3.22607422 51.16970825 C2.40187988 51.15955688 1.57768555 51.14940552 0.72851562 51.13894653 C0.73637085 52.53185913 0.73637085 52.53185913 0.74438477 53.95291138 C0.76141155 57.39318459 0.77395836 60.83341312 0.78344727 64.27371216 C0.78848077 65.76362819 0.79530805 67.25353928 0.80395508 68.74343872 C0.81606368 70.88309957 0.82175369 73.02269521 0.82617188 75.16238403 C0.8340271 77.09476929 0.8340271 77.09476929 0.84204102 79.06619263 C0.72851562 82.13894653 0.72851562 82.13894653 -0.27148438 84.13894653 C-2.25148437 84.13894653 -4.23148438 84.13894653 -6.27148438 84.13894653 C-6.27148438 84.79894653 -6.27148438 85.45894653 -6.27148438 86.13894653 C-9.90148437 86.13894653 -13.53148438 86.13894653 -17.27148438 86.13894653 C-18.67999047 83.32193433 -18.39874335 80.97558109 -18.40087891 77.82498169 C-18.40263123 77.17762558 -18.40438354 76.53026947 -18.40618896 75.86329651 C-18.41059859 73.7181736 -18.40767194 71.57313282 -18.40429688 69.42800903 C-18.40497033 67.9382933 -18.40594071 66.44857767 -18.40719604 64.9588623 C-18.40867195 61.83333289 -18.40652252 58.70783201 -18.40185547 55.58230591 C-18.39616812 51.57851186 -18.39943154 47.57478499 -18.40542793 43.57099342 C-18.40904488 40.49291479 -18.40788957 37.41485203 -18.40530014 34.33677292 C-18.4046335 32.86080289 -18.40545013 31.38483141 -18.40777969 29.90886307 C-18.41032369 27.84310352 -18.40644055 25.77745196 -18.40087891 23.71170044 C-18.40008331 22.53636749 -18.39928772 21.36103455 -18.39846802 20.15008545 C-18.29173045 17.61903795 -18.01619813 15.54486309 -17.27148438 13.13894653 C-15.95148438 12.80894653 -14.63148437 12.47894653 -13.27148438 12.13894653 C-13.27148438 9.49894653 -13.27148438 6.85894653 -13.27148438 4.13894653 C-12.13710937 3.66457153 -11.00273437 3.19019653 -9.83398438 2.70144653 C-3.71409107 0.0172828 -3.71409107 0.0172828 0 0 Z " fill="#F2AA42" transform="translate(141.271484375,195.86105346679688)"/>
<path d="M0 0 C0 23.76 0 47.52 0 72 C9.24 72 18.48 72 28 72 C29 73 29 73 29.09765625 74.84765625 C29.06510417 76.8984375 29.03255208 78.94921875 29 81 C27.02 81 25.04 81 23 81 C23 81.99 23 82.98 23 84 C18.49829798 84.21715569 13.99633843 84.41398879 9.49291992 84.59204102 C7.96110301 84.65546794 6.42950532 84.72444183 4.89819336 84.79907227 C2.69679322 84.90539597 0.49537513 84.99173827 -1.70703125 85.07421875 C-2.39150833 85.11157639 -3.07598541 85.14893402 -3.78120422 85.18742371 C-6.66217699 85.27850527 -8.52596967 85.3259219 -10.9440918 83.66333008 C-12.38976348 81.38602114 -12.2140319 79.63972675 -12 77 C-13.32 76.34 -14.64 75.68 -16 75 C-16.02312484 65.49925675 -16.0409158 55.99852312 -16.05181217 46.49775791 C-16.05704069 42.08662996 -16.06413777 37.6755212 -16.07543945 33.2644043 C-16.08626944 29.01098885 -16.09227707 24.75759191 -16.09487724 20.50416374 C-16.09673129 18.87778367 -16.10035152 17.25140466 -16.10573006 15.62503242 C-16.11294198 13.35489807 -16.11399088 11.08484115 -16.11352539 8.81469727 C-16.115746 7.52008072 -16.11796661 6.22546417 -16.12025452 4.89161682 C-16 2 -16 2 -15 1 C-9.81286267 0.19509938 -5.33658427 0 0 0 Z " fill="#FAB03A" transform="translate(207,198)"/>
<path d="M0 0 C4.45821166 -0.08674429 8.91620804 -0.14030513 13.375 -0.1875 C14.64601563 -0.21263672 15.91703125 -0.23777344 17.2265625 -0.26367188 C19.04414063 -0.27817383 19.04414063 -0.27817383 20.8984375 -0.29296875 C22.01911621 -0.3086792 23.13979492 -0.32438965 24.29443359 -0.34057617 C25.18727051 -0.22818604 26.08010742 -0.1157959 27 0 C29.29013653 3.4352048 29.17842973 4.985331 29 9 C29.928125 9.433125 29.928125 9.433125 30.875 9.875 C33 11 33 11 35 13 C37.06402968 12.51294288 37.06402968 12.51294288 39 11 C39.74176007 7.47486472 39.74176007 7.47486472 40 4 C41 3 41 3 44.0625 2.9375 C45.5165625 2.9684375 45.5165625 2.9684375 47 3 C47 5.31 47 7.62 47 10 C46.34 10 45.68 10 45 10 C45 10.66 45 11.32 45 12 C44.01 12 43.02 12 42 12 C42.00580078 13.1334082 42.01160156 14.26681641 42.01757812 15.43457031 C42.06707552 29.8782898 41.80436565 44.30999468 41.5 58.75 C41.45163721 61.11588163 41.40345905 63.48176704 41.35546875 65.84765625 C41.23910034 71.56514936 41.12048066 77.28259214 41 83 C41.99 83 42.98 83 44 83 C44.33 83.99 44.66 84.98 45 86 C37.77684455 87.46911636 37.77684455 87.46911636 34.40132141 85.4307251 C31.20309481 82.19333687 31.36418512 80.43796337 31.34057617 75.93652344 C31.33009247 75.23368225 31.31960876 74.53084106 31.30880737 73.80670166 C31.28007412 71.49047607 31.286346 69.17574675 31.29296875 66.859375 C31.2798525 65.25081511 31.26454849 63.64227168 31.24714661 62.03375244 C31.20727442 57.80537235 31.19710481 53.57742287 31.19311523 49.34887695 C31.18378787 45.03193073 31.14637691 40.71523796 31.11132812 36.3984375 C31.0467298 27.93228705 31.01350826 19.46638538 31 11 C29.68 10.67 28.36 10.34 27 10 C26.505 6.535 26.505 6.535 26 3 C17.75 3 9.5 3 1 3 C0.34 5.97 -0.32 8.94 -1 12 C-2.98 12.99 -2.98 12.99 -5 14 C-5 13.34 -5 12.68 -5 12 C-5.66 12 -6.32 12 -7 12 C-7 35.43 -7 58.86 -7 83 C-5.68 83.33 -4.36 83.66 -3 84 C-3 84.66 -3 85.32 -3 86 C-4.64574566 86.02688151 -6.29161413 86.04634123 -7.9375 86.0625 C-8.85402344 86.07410156 -9.77054687 86.08570313 -10.71484375 86.09765625 C-13 86 -13 86 -14 85 C-14.12401914 82.82268611 -14.1780151 80.64136546 -14.20532227 78.46069336 C-14.21522186 77.77779739 -14.22512146 77.09490143 -14.23532104 76.39131165 C-14.26701935 74.12419147 -14.29172613 71.85705031 -14.31640625 69.58984375 C-14.3369686 68.02184999 -14.35796488 66.45386187 -14.37937927 64.88587952 C-14.43467424 60.75129752 -14.48405062 56.61666489 -14.53222656 52.48199463 C-14.58238753 48.26594517 -14.63810174 44.04996957 -14.69335938 39.83398438 C-14.8010317 31.55605197 -14.90245635 23.27805792 -15 15 C-18.3 14.67 -21.6 14.34 -25 14 C-25 36.44 -25 58.88 -25 82 C-25.33 82 -25.66 82 -26 82 C-26 58.57 -26 35.14 -26 11 C-19.07 11 -12.14 11 -5 11 C-5 7.7 -5 4.4 -5 1 C-3.68 1.66 -2.36 2.32 -1 3 C-0.67 2.01 -0.34 1.02 0 0 Z " fill="#C7754B" transform="translate(282,196)"/>
<path d="M0 0 C1.45792884 -0.05399736 2.91642712 -0.09279177 4.375 -0.125 C5.18710938 -0.14820313 5.99921875 -0.17140625 6.8359375 -0.1953125 C9 0 9 0 11 2 C11.18788205 4.59008309 11.25187766 7.07230933 11.22705078 9.66259766 C11.22734283 10.45292892 11.22763489 11.24326019 11.22793579 12.05754089 C11.22653962 14.67649214 11.21096505 17.2951608 11.1953125 19.9140625 C11.19158339 21.72724248 11.18873594 23.54042447 11.18673706 25.35360718 C11.17909257 30.13107851 11.15943712 34.90842867 11.1373291 39.68585205 C11.1168882 44.55878052 11.10773911 49.43172853 11.09765625 54.3046875 C11.07619197 63.86984497 11.04204623 73.43491242 11 83 C3.37281535 86.39608663 3.37281535 86.39608663 -1.375 86.25 C-2.22835937 86.23453125 -3.08171875 86.2190625 -3.9609375 86.203125 C-6 86 -6 86 -7 85 C-7.10035816 82.47997549 -7.13617712 79.987338 -7.12939453 77.46679688 C-7.13114685 76.67821793 -7.13289917 75.88963898 -7.13470459 75.0771637 C-7.13912358 72.4576704 -7.13618496 69.83824404 -7.1328125 67.21875 C-7.13348553 65.4065347 -7.13445554 63.59431948 -7.13571167 61.78210449 C-7.13718871 57.97891381 -7.1350339 54.17574656 -7.13037109 50.37255859 C-7.1246738 45.48621505 -7.12795278 40.59992643 -7.13394356 35.7135849 C-7.13754901 31.96994611 -7.13641066 28.22632045 -7.13381577 24.48268127 C-7.13314645 22.68046563 -7.13397507 20.87824882 -7.13629532 19.07603455 C-7.13882159 16.56172509 -7.13498162 14.04750583 -7.12939453 11.53320312 C-7.13141876 10.78095963 -7.13344299 10.02871613 -7.13552856 9.25367737 C-7.1142626 4.1142626 -7.1142626 4.1142626 -6 3 C-4.33382885 2.95936168 -2.66611905 2.957279 -1 3 C-0.67 2.01 -0.34 1.02 0 0 Z " fill="#EC5F4D" transform="translate(179,196)"/>
<path d="M0 0 C1.12591553 0.00523682 2.25183105 0.01047363 3.41186523 0.01586914 C4.62680664 0.0190918 5.84174805 0.02231445 7.09350586 0.02563477 C8.37290039 0.03401367 9.65229492 0.04239258 10.97045898 0.05102539 C12.2537207 0.05553711 13.53698242 0.06004883 14.85913086 0.06469727 C18.04211921 0.07652994 21.22501661 0.09301471 24.40795898 0.11352539 C24.07795898 0.77352539 23.74795898 1.43352539 23.40795898 2.11352539 C23.36773508 4.44651199 23.36475652 6.78059205 23.40795898 9.11352539 C20.68293991 10.02186508 18.78561928 10.29712524 15.95874023 10.42993164 C14.68740234 10.49277344 14.68740234 10.49277344 13.39038086 10.55688477 C12.50930664 10.59620117 11.62823242 10.63551758 10.72045898 10.67602539 C9.8277832 10.71920898 8.93510742 10.76239258 8.01538086 10.80688477 C5.8130579 10.91287892 3.61062425 11.0149459 1.40795898 11.11352539 C1.41843262 11.83008301 1.42890625 12.54664063 1.43969727 13.28491211 C1.48117197 16.51941444 1.5072579 19.75386092 1.53295898 22.98852539 C1.5497168 24.11645508 1.56647461 25.24438477 1.58374023 26.40649414 C1.59018555 27.48286133 1.59663086 28.55922852 1.60327148 29.66821289 C1.61374512 30.66320801 1.62421875 31.65820312 1.63500977 32.68334961 C1.40795898 35.11352539 1.40795898 35.11352539 -0.59204102 37.11352539 C-0.87247085 39.28890223 -0.87247085 39.28890223 -0.77954102 41.67602539 C-0.7730957 42.48168945 -0.76665039 43.28735352 -0.76000977 44.11743164 C-0.80835013 46.11232424 -0.80835013 46.11232424 0.40795898 47.11352539 C0.55459495 49.28377551 0.63548502 51.45852188 0.68920898 53.63305664 C0.71682312 54.6155262 0.71682312 54.6155262 0.74499512 55.61784363 C0.80389968 57.72047716 0.85660605 59.82319469 0.90795898 61.92602539 C0.97579025 64.68270059 1.04957245 67.43912804 1.12670898 70.19555664 C1.15700195 71.42508057 1.18729492 72.65460449 1.21850586 73.92138672 C1.28862735 76.99859895 1.28862735 76.99859895 2.05053711 79.42089844 C2.16848633 79.97946533 2.28643555 80.53803223 2.40795898 81.11352539 C-0.15750042 83.67898479 -2.06890769 83.65398626 -5.59204102 84.11352539 C-5.59204102 83.45352539 -5.59204102 82.79352539 -5.59204102 82.11352539 C-6.58204102 82.11352539 -7.57204102 82.11352539 -8.59204102 82.11352539 C-8.61780211 75.21656104 -8.63507635 68.31960947 -8.64697266 61.42260742 C-8.6519421 59.08568864 -8.65871996 56.74877287 -8.66748047 54.41186523 C-8.72028598 39.94315495 -8.50262441 25.55556281 -7.59204102 11.11352539 C-6.60204102 11.11352539 -5.61204102 11.11352539 -4.59204102 11.11352539 C-4.59204102 10.45352539 -4.59204102 9.79352539 -4.59204102 9.11352539 C-3.93204102 9.11352539 -3.27204102 9.11352539 -2.59204102 9.11352539 C-2.77766602 7.81415039 -2.96329102 6.51477539 -3.15454102 5.17602539 C-3.47094727 2.96118164 -3.47094727 2.96118164 -3.59204102 1.11352539 C-2.59204102 0.11352539 -2.59204102 0.11352539 0 0 Z M-3.59204102 47.11352539 C-2.93204102 48.43352539 -2.27204102 49.75352539 -1.59204102 51.11352539 C-1.26204102 49.79352539 -0.93204102 48.47352539 -0.59204102 47.11352539 C-1.58204102 47.11352539 -2.57204102 47.11352539 -3.59204102 47.11352539 Z " fill="#F9B03C" transform="translate(331.592041015625,196.886474609375)"/>
<path d="M0 0 C1.43352212 0.00015908 2.86704998 0.00585132 4.30053711 0.01586914 C5.43041298 0.01799156 5.43041298 0.01799156 6.58311462 0.02015686 C8.99807646 0.02577163 11.41294687 0.03832656 13.82788086 0.05102539 C15.46134307 0.05603849 17.09480672 0.06060173 18.72827148 0.06469727 C22.74067671 0.07574585 26.75301326 0.09302033 30.76538086 0.11352539 C30.76538086 0.44352539 30.76538086 0.77352539 30.76538086 1.11352539 C14.43038086 1.60852539 14.43038086 1.60852539 -2.23461914 2.11352539 C-3.46960991 4.17947729 -3.46960991 4.17947729 -3.10961914 7.05102539 C-3.15086914 8.06165039 -3.19211914 9.07227539 -3.23461914 10.11352539 C-3.72164307 10.53311523 -4.20866699 10.95270508 -4.71044922 11.38500977 C-7.04303193 14.03032221 -6.67221927 16.35668226 -6.74633789 19.83227539 C-6.76447037 20.51064453 -6.78260284 21.18901367 -6.80128479 21.88793945 C-6.85673185 24.12975461 -6.89025599 26.3712597 -6.92211914 28.61352539 C-6.95301601 30.17148171 -6.98460099 31.72942451 -7.0168457 33.28735352 C-7.09604513 37.38941344 -7.15234126 41.49148257 -7.2020874 45.59399414 C-7.23458714 48.11104686 -7.27487627 50.62786916 -7.31713867 53.14477539 C-7.38337546 57.19410187 -7.43116223 61.24323449 -7.46377563 65.29296875 C-7.47764249 66.83679834 -7.49599551 68.38059431 -7.51889038 69.92431641 C-7.54847911 72.08134365 -7.55837272 74.23756904 -7.56274414 76.39477539 C-7.57208984 77.62260742 -7.58143555 78.85043945 -7.59106445 80.11547852 C-7.50694903 83.45987527 -7.50694903 83.45987527 -4.23461914 86.11352539 C-7.86461914 86.11352539 -11.49461914 86.11352539 -15.23461914 86.11352539 C-16.64312524 83.29651319 -16.36187811 80.95015995 -16.36401367 77.79956055 C-16.36576599 77.15220444 -16.36751831 76.50484833 -16.36932373 75.83787537 C-16.37373335 73.69275245 -16.3708067 71.54771168 -16.36743164 69.40258789 C-16.3681051 67.91287215 -16.36907548 66.42315652 -16.37033081 64.93344116 C-16.37180671 61.80791174 -16.36965729 58.68241087 -16.36499023 55.55688477 C-16.35930288 51.55309072 -16.36256631 47.54936385 -16.3685627 43.54557228 C-16.37217964 40.46749365 -16.37102433 37.38943089 -16.36843491 34.31135178 C-16.36776826 32.83538174 -16.36858489 31.35941027 -16.37091446 29.88344193 C-16.37345846 27.81768238 -16.36957532 25.75203082 -16.36401367 23.6862793 C-16.36321808 22.51094635 -16.36242249 21.3356134 -16.36160278 20.12466431 C-16.25486522 17.59361681 -15.9793329 15.51944195 -15.23461914 13.11352539 C-13.91461914 12.78352539 -12.59461914 12.45352539 -11.23461914 12.11352539 C-11.23461914 9.47352539 -11.23461914 6.83352539 -11.23461914 4.11352539 C-10.10024414 3.63915039 -8.96586914 3.16477539 -7.79711914 2.67602539 C-1.84328283 0.06469368 -1.84328283 0.06469368 0 0 Z " fill="#E9544C" transform="translate(139.234619140625,195.886474609375)"/>
<path d="M0 0 C0.9075 0.00257813 1.815 0.00515625 2.75 0.0078125 C4.11125 0.00394531 4.11125 0.00394531 5.5 0 C7.75 0.1328125 7.75 0.1328125 8.75 1.1328125 C8.83851529 3.72640572 8.86525945 6.29320941 8.84765625 8.88671875 C8.8462413 9.66216537 8.84482635 10.437612 8.84336853 11.23655701 C8.83775345 13.72284744 8.82519846 16.2090491 8.8125 18.6953125 C8.80748694 20.37695183 8.8029237 22.05859256 8.79882812 23.74023438 C8.78777913 27.87112816 8.77050445 32.00195526 8.75 36.1328125 C9.41 36.4628125 10.07 36.7928125 10.75 37.1328125 C9.76 37.1328125 8.77 37.1328125 7.75 37.1328125 C6.2735764 34.1799653 6.52727061 31.44832267 6.43359375 28.15625 C6.41281265 27.4710025 6.39203156 26.785755 6.37062073 26.07974243 C6.30519815 23.88920181 6.24627446 21.69854061 6.1875 19.5078125 C6.14430782 18.023425 6.1006933 16.53904972 6.05664062 15.0546875 C5.94952447 11.41419166 5.84823638 7.77355999 5.75 4.1328125 C3.44 4.1328125 1.13 4.1328125 -1.25 4.1328125 C-1.25 15.0228125 -1.25 25.9128125 -1.25 37.1328125 C0.07 37.4628125 1.39 37.7928125 2.75 38.1328125 C2.75 40.7728125 2.75 43.4128125 2.75 46.1328125 C0.275 46.6278125 0.275 46.6278125 -2.25 47.1328125 C-2.25 59.0128125 -2.25 70.8928125 -2.25 83.1328125 C-1.59 83.1328125 -0.93 83.1328125 -0.25 83.1328125 C-0.25 84.1228125 -0.25 85.1128125 -0.25 86.1328125 C-4.44589427 87.29833869 -5.07091936 87.22235282 -9.25 85.1328125 C-9.25 73.5828125 -9.25 62.0328125 -9.25 50.1328125 C-7.27 49.6378125 -7.27 49.6378125 -5.25 49.1328125 C-5.51393501 45.70050802 -5.51393501 45.70050802 -6.25 42.1328125 C-7.24 41.4728125 -8.23 40.8128125 -9.25 40.1328125 C-9.5167616 37.36652335 -9.59804189 34.82661619 -9.54296875 32.0625 C-9.53872391 31.26627228 -9.53447906 30.47004456 -9.53010559 29.64968872 C-9.51328834 27.10205521 -9.47563179 24.55520761 -9.4375 22.0078125 C-9.42245705 20.28256349 -9.40876796 18.55730211 -9.39648438 16.83203125 C-9.36337501 12.59865468 -9.31157285 8.36586691 -9.25 4.1328125 C-8.280625 3.6584375 -7.31125 3.1840625 -6.3125 2.6953125 C-1.16440239 0.06873209 -1.16440239 0.06873209 0 0 Z " fill="#DC6256" transform="translate(373.25,195.8671875)"/>
<path d="M0 0 C2.64 0 5.28 0 8 0 C8 26.4 8 52.8 8 80 C5.03 80 2.06 80 -1 80 C-1.02589007 72.78565257 -1.04308614 65.57131758 -1.05493164 58.35693359 C-1.05988282 55.91552279 -1.0666455 53.47411483 -1.07543945 51.03271484 C-1.1351558 33.99599203 -0.79969284 17.01863539 0 0 Z " fill="#FCAE3C" transform="translate(180,199)"/>
<path d="M0 0 C1.32 0 2.64 0 4 0 C4.33 2.31 4.66 4.62 5 7 C5.99 7.33 6.98 7.66 8 8 C9.2343558 15.65386018 9.12716362 23.26509562 9.09765625 31 C9.0957881 32.44588166 9.09436607 33.89176396 9.09336853 35.33764648 C9.08957463 39.11873157 9.07977151 42.89977744 9.06866455 46.68084717 C9.05838274 50.5489448 9.05385649 54.41704885 9.04882812 58.28515625 C9.03814604 65.85678859 9.02110777 73.42838877 9 81 C6.03 81.495 6.03 81.495 3 82 C3 81.34 3 80.68 3 80 C2.01 79.67 1.02 79.34 0 79 C-0.023216 69.99403277 -0.04096219 60.98807591 -0.05181217 51.98208523 C-0.05702078 47.79981361 -0.06408157 43.61756253 -0.07543945 39.43530273 C-0.08634037 35.39582684 -0.09229206 31.35637065 -0.09487724 27.31688118 C-0.09671853 25.77919263 -0.10031405 24.24150511 -0.10573006 22.703825 C-0.11303621 20.54267966 -0.11398693 18.38161477 -0.11352539 16.22045898 C-0.115746 14.99246078 -0.11796661 13.76446259 -0.12025452 12.49925232 C0 9 0 9 0.56959534 5.17372131 C1.28880294 2.10814371 1.28880294 2.10814371 0 0 Z " fill="#F9AF3D" transform="translate(305,199)"/>
<path d="M0 0 C6.27 0 12.54 0 19 0 C19.33 23.76 19.66 47.52 20 72 C21.485 72.495 21.485 72.495 23 73 C23 73.66 23 74.32 23 75 C16.375 76.125 16.375 76.125 13 75 C11.56655548 72.13311096 11.83545941 69.64323922 11.79467773 66.43896484 C11.78477814 65.76567642 11.77487854 65.092388 11.76467896 64.3986969 C11.73304885 62.16947974 11.70830066 59.94024126 11.68359375 57.7109375 C11.66302552 56.16679322 11.64202908 54.62265459 11.62062073 53.07852173 C11.56538651 49.01135833 11.51598322 44.94414401 11.46777344 40.87689209 C11.41756825 36.72777771 11.36187707 32.57873741 11.30664062 28.4296875 C11.19904254 20.28652095 11.09760126 12.14329248 11 4 C8.03 4 5.06 4 2 4 C1.67 26.44 1.34 48.88 1 72 C0.67 72 0.34 72 0 72 C-0.15359006 62.7601082 -0.30177175 53.5201504 -0.4429636 44.28006077 C-0.50868964 39.98996276 -0.57630985 35.69991172 -0.64819336 31.40991211 C-0.71743862 27.27326807 -0.78179403 23.13657473 -0.84269524 18.99979973 C-0.86685351 17.41805169 -0.89280245 15.83633 -0.92053413 14.25464058 C-0.95894367 12.04683685 -0.99110304 9.83902695 -1.02172852 7.63110352 C-1.04171402 6.37201675 -1.06169952 5.11292999 -1.08229065 3.81568909 C-1 1 -1 1 0 0 Z " fill="#D3594F" transform="translate(285,207)"/>
<path d="M0 0 C3.5 0.125 3.5 0.125 4.5 1.125 C4.64687491 3.33304471 4.72759145 5.54553891 4.78125 7.7578125 C4.80886414 8.76290359 4.80886414 8.76290359 4.83703613 9.78829956 C4.89593922 11.94210795 4.94859992 14.09600033 5 16.25 C5.0516488 18.38256468 5.10481345 20.51503256 5.16296387 22.64743042 C5.21610855 24.5983461 5.2634788 26.54941654 5.31054688 28.50048828 C5.4983922 32.09424046 5.95734119 35.56970597 6.5 39.125 C6.5 39.785 6.5 40.445 6.5 41.125 C5.51 41.62 5.51 41.62 4.5 42.125 C4.5 54.665 4.5 67.205 4.5 80.125 C-1.5 79.125 -1.5 79.125 -2.5 78.125 C-2.58847743 75.60405924 -2.61527301 73.11069107 -2.59765625 70.58984375 C-2.5962413 69.83659317 -2.59482635 69.08334259 -2.59336853 68.30726624 C-2.58775376 65.8923044 -2.57519883 63.47743399 -2.5625 61.0625 C-2.5574869 59.42903779 -2.55292366 57.79557414 -2.54882812 56.16210938 C-2.53777954 52.14970415 -2.52050506 48.13736759 -2.5 44.125 C-1.51 43.63 -1.51 43.63 -0.5 43.125 C-0.03476937 41.22966658 -0.03476937 41.22966658 0.125 39.0625 C0.24875 37.763125 0.3725 36.46375 0.5 35.125 C-1.15 34.795 -2.8 34.465 -4.5 34.125 C-4.52465288 29.44360746 -4.54283739 24.76225241 -4.55493164 20.08081055 C-4.55997157 18.48705386 -4.5668035 16.89330181 -4.57543945 15.29956055 C-4.58751999 13.01349747 -4.59323155 10.72749533 -4.59765625 8.44140625 C-4.60281754 7.72473282 -4.60797882 7.00805939 -4.61329651 6.26966858 C-4.61349263 4.55436328 -4.56192007 2.83918734 -4.5 1.125 C-3.5 0.125 -3.5 0.125 0 0 Z " fill="#FBB03A" transform="translate(375.5,198.875)"/>
<path d="M0 0 C2.5 0.125 2.5 0.125 3.5 1.125 C3.62411582 3.36357356 3.67803023 5.60605484 3.70532227 7.84790039 C3.71522186 8.5503035 3.72512146 9.2527066 3.73532104 9.97639465 C3.76702122 12.30844704 3.79172688 14.64051984 3.81640625 16.97265625 C3.83696844 18.58549035 3.85796471 20.19831896 3.87937927 21.81114197 C3.93467592 26.06409275 3.98405156 30.31709277 4.03222656 34.57012939 C4.08238631 38.90682375 4.13810115 43.24344627 4.19335938 47.58007812 C4.30103375 56.09499141 4.40245795 64.60996465 4.5 73.125 C5.16 73.125 5.82 73.125 6.5 73.125 C6.5 73.785 6.5 74.445 6.5 75.125 C5.51 75.125 4.52 75.125 3.5 75.125 C3.17 77.435 2.84 79.745 2.5 82.125 C4.15 82.125 5.8 82.125 7.5 82.125 C7.5 82.455 7.5 82.785 7.5 83.125 C5.52 83.125 3.54 83.125 1.5 83.125 C1.4175 82.01125 1.335 80.8975 1.25 79.75 C1.0025 78.55375 0.755 77.3575 0.5 76.125 C-1.47742781 74.86490208 -1.47742781 74.86490208 -3.5 74.125 C-3.52312484 64.62425675 -3.5409158 55.12352312 -3.55181217 45.62275791 C-3.55704069 41.21162996 -3.56413777 36.8005212 -3.57543945 32.3894043 C-3.58626944 28.13598885 -3.59227707 23.88259191 -3.59487724 19.62916374 C-3.59673129 18.00278367 -3.60035152 16.37640466 -3.60573006 14.75003242 C-3.61294198 12.47989807 -3.61399088 10.20984115 -3.61352539 7.93969727 C-3.615746 6.64508072 -3.61796661 5.35046417 -3.62025452 4.01661682 C-3.46040975 0.17302049 -3.46040975 0.17302049 0 0 Z " fill="#F45B4C" transform="translate(194.5,198.875)"/>
<path d="M0 0 C1.45792884 -0.05399736 2.91642712 -0.09279177 4.375 -0.125 C5.18710938 -0.14820313 5.99921875 -0.17140625 6.8359375 -0.1953125 C9 0 9 0 11 2 C11.24050903 4.9359436 11.24050903 4.9359436 11.22705078 8.74462891 C11.22734283 9.43742447 11.22763489 10.13022003 11.22793579 10.8440094 C11.22654031 13.13832034 11.21096919 15.43230816 11.1953125 17.7265625 C11.19158314 19.31553978 11.1887358 20.90451936 11.18673706 22.49349976 C11.17909453 26.67914154 11.15944081 30.8646449 11.1373291 35.05023193 C11.11688396 39.31992724 11.1077382 43.58964487 11.09765625 47.859375 C11.07619543 56.23964691 11.04205211 64.61980625 11 73 C11.81267334 72.99476318 12.62534668 72.98952637 13.46264648 72.98413086 C17.12092322 72.96343006 20.77918767 72.95036197 24.4375 72.9375 C25.71689453 72.92912109 26.99628906 72.92074219 28.31445312 72.91210938 C29.52939453 72.90888672 30.74433594 72.90566406 31.99609375 72.90234375 C33.12200928 72.89710693 34.2479248 72.89187012 35.40795898 72.88647461 C38 73 38 73 39 74 C39.00808685 73.15475266 39.01617371 72.30950531 39.02450562 71.43864441 C39.10240451 63.47801294 39.18968085 55.51755168 39.28752708 47.5571394 C39.33750068 43.46447841 39.38383052 39.37184337 39.421875 35.27905273 C39.45871454 31.33023742 39.50507065 27.38163862 39.55806351 23.43300819 C39.57661459 21.92554835 39.59171993 20.41804209 39.60334396 18.91051292 C39.62019451 16.80103701 39.64922559 14.69205772 39.68115234 12.58276367 C39.69447601 11.38141281 39.70779968 10.18006195 39.7215271 8.94230652 C40 6 40 6 42 3 C43.64363134 2.27840576 45.31050386 1.60648579 47 1 C47.33 0.67 47.66 0.34 48 0 C50.29151417 -0.08790975 52.58572524 -0.10694038 54.87890625 -0.09765625 C55.90889992 -0.09553383 55.90889992 -0.09553383 56.95970154 -0.09336853 C59.16067801 -0.08775479 61.36155409 -0.07520007 63.5625 -0.0625 C65.05143083 -0.05748676 66.54036324 -0.05292355 68.02929688 -0.04882812 C71.68623075 -0.03778093 75.34310558 -0.02050713 79 0 C79 0.33 79 0.66 79 1 C69.1 1.33 59.2 1.66 49 2 C48.67 28.73 48.34 55.46 48 83 C47.67 83 47.34 83 47 83 C47 57.26 47 31.52 47 5 C45.35 5 43.7 5 42 5 C42.33 31.73 42.66 58.46 43 86 C41.68 85.34 40.36 84.68 39 84 C35.31796085 84.31126713 35.31796085 84.31126713 32 85 C32 84.34 32 83.68 32 83 C33.98 83 35.96 83 38 83 C37.505 79.04 37.505 79.04 37 75 C23.14 74.505 23.14 74.505 9 74 C9 50.24 9 26.48 9 2 C5.7 2.33 2.4 2.66 -1 3 C-0.67 2.01 -0.34 1.02 0 0 Z " fill="#79694C" transform="translate(198,196)"/>
<path d="M0 0 C0.99 0.33 1.98 0.66 3 1 C2.01 1.495 2.01 1.495 1 2 C0.66574265 4.37374861 0.66574265 4.37374861 1 7 C1.65637451 7.39243896 2.31274902 7.78487793 2.98901367 8.18920898 C5 10 5 10 5.4699707 13.42993164 C5.47609134 14.84007016 5.45996892 16.25041893 5.42578125 17.66015625 C5.42249313 18.40583359 5.41920502 19.15151093 5.41581726 19.91978455 C5.40540282 21.49421937 5.38546337 23.06861594 5.35668945 24.64282227 C5.31260013 27.05701701 5.2952525 29.47021806 5.28320312 31.88476562 C5.26977942 33.41407689 5.25485655 34.94337589 5.23828125 36.47265625 C5.23089432 37.19663101 5.22350739 37.92060577 5.21589661 38.66651917 C5.11838541 43.76322917 5.11838541 43.76322917 4 46 C2.02 46 0.04 46 -2 46 C-2 46.66 -2 47.32 -2 48 C-9.5 49.25 -9.5 49.25 -14 47 C-14 35.78 -14 24.56 -14 13 C-17.3 13.33 -20.6 13.66 -24 14 C-24.33 24.23 -24.66 34.46 -25 45 C-25.33 45 -25.66 45 -26 45 C-26 33.45 -26 21.9 -26 10 C-20.32745403 7.16372702 -13.3420992 9 -7 9 C-7 20.88 -7 32.76 -7 45 C-4.36 44.67 -1.72 44.34 1 44 C1.33 32.78 1.66 21.56 2 10 C0.68 10 -0.64 10 -2 10 C-2.1953125 3.9453125 -2.1953125 3.9453125 -2 2 C-1.34 1.34 -0.68 0.68 0 0 Z " fill="#C55654" transform="translate(407,234)"/>
<path d="M0 0 C0.33 0 0.66 0 1 0 C1 2.31 1 4.62 1 7 C0.34 7 -0.32 7 -1 7 C-1 7.66 -1 8.32 -1 9 C-1.99 9 -2.98 9 -4 9 C-3.99419922 10.1334082 -3.98839844 11.26681641 -3.98242188 12.43457031 C-3.93292448 26.8782898 -4.19563435 41.30999468 -4.5 55.75 C-4.54836279 58.11588163 -4.59654095 60.48176704 -4.64453125 62.84765625 C-4.76089966 68.56514936 -4.87951934 74.28259214 -5 80 C-4.01 80 -3.02 80 -2 80 C-1.67 80.99 -1.34 81.98 -1 83 C-8.75 84.125 -8.75 84.125 -11 83 C-11 59.9 -11 36.8 -11 13 C-10.01 12.67 -9.02 12.34 -8 12 C-8 11.34 -8 10.68 -8 10 C-7.34 9.67 -6.68 9.34 -6 9 C-5.67 8.01 -5.34 7.02 -5 6 C-3.68 6 -2.36 6 -1 6 C-0.67 4.02 -0.34 2.04 0 0 Z " fill="#E95749" transform="translate(328,199)"/>
<path d="M0 0 C2.45862401 -0.05383848 4.9160755 -0.09359038 7.375 -0.125 C8.42300781 -0.15013672 8.42300781 -0.15013672 9.4921875 -0.17578125 C11.32897486 -0.19344267 13.16601963 -0.10303261 15 0 C17.77969003 2.77969003 17.27508322 4.48240628 17.31884766 8.37744141 C17.32889328 9.03122269 17.3389389 9.68500397 17.34928894 10.3585968 C17.38021789 12.52290962 17.39718254 14.68709823 17.4140625 16.8515625 C17.4327664 18.35087154 17.45233922 19.85016998 17.4727478 21.34945679 C17.52415753 25.29823562 17.56373568 29.24704863 17.60089111 33.19598389 C17.64087556 37.22449251 17.69199317 41.25285794 17.7421875 45.28125 C17.83905136 53.18740233 17.9234224 61.09362529 18 69 C19.32 69.66 20.64 70.32 22 71 C22 71.66 22 72.32 22 73 C20.35425434 73.02688151 18.70838587 73.04634123 17.0625 73.0625 C16.14597656 73.07410156 15.22945313 73.08570313 14.28515625 73.09765625 C12 73 12 73 11 72 C10.87598086 69.82268611 10.8219849 67.64136546 10.79467773 65.46069336 C10.78477814 64.77779739 10.77487854 64.09490143 10.76467896 63.39131165 C10.73298065 61.12419147 10.70827387 58.85705031 10.68359375 56.58984375 C10.6630314 55.02184999 10.64203512 53.45386187 10.62062073 51.88587952 C10.56532576 47.75129752 10.51594938 43.61666489 10.46777344 39.48199463 C10.41761247 35.26594517 10.36189826 31.04996957 10.30664062 26.83398438 C10.1989683 18.55605197 10.09754365 10.27805792 10 2 C6.7 1.67 3.4 1.34 0 1 C0 0.67 0 0.34 0 0 Z " fill="#F75351" transform="translate(257,209)"/>
<path d="M0 0 C1.65 0 3.3 0 5 0 C5 25.74 5 51.48 5 78 C5.99 78 6.98 78 8 78 C8 78.99 8 79.98 8 81 C5.125 81.625 5.125 81.625 2 82 C-0.48839325 79.51160675 -0.23503088 78.06910338 -0.24884033 74.67425537 C-0.24164978 73.93338684 -0.23445923 73.19251831 -0.22705078 72.42919922 C-0.22748886 71.25833267 -0.22748886 71.25833267 -0.22793579 70.06381226 C-0.22653968 67.47732522 -0.21096542 64.89112436 -0.1953125 62.3046875 C-0.19158337 60.51392779 -0.18873592 58.72316604 -0.18673706 56.93240356 C-0.17909275 52.21411528 -0.15943745 47.49594969 -0.1373291 42.77770996 C-0.11688782 37.96510478 -0.10773903 33.15247981 -0.09765625 28.33984375 C-0.07619228 18.89317519 -0.04204675 9.44659779 0 0 Z " fill="#F3544E" transform="translate(240,201)"/>
<path d="M0 0 C0.33 0 0.66 0 1 0 C1 20.79 1 41.58 1 63 C-1.31 62.67 -3.62 62.34 -6 62 C-5.505 32.3 -5.505 32.3 -5 2 C-3.68 1.67 -2.36 1.34 -1 1 C-0.67 0.67 -0.34 0.34 0 0 Z " fill="#FDB139" transform="translate(282,216)"/>
<path d="M0 0 C1.47906892 -0.02689216 2.95827483 -0.04634621 4.4375 -0.0625 C5.26121094 -0.07410156 6.08492187 -0.08570313 6.93359375 -0.09765625 C9 0 9 0 10 1 C10.09504251 3.52541002 10.12557158 6.02337126 10.11352539 8.54907227 C10.11367142 9.33925751 10.11381744 10.12944275 10.1139679 10.943573 C10.11326857 13.56787822 10.10547527 16.19211336 10.09765625 18.81640625 C10.09579214 20.63101665 10.0943682 22.44562756 10.09336853 24.26023865 C10.08954279 29.0459023 10.07971204 33.8315358 10.06866455 38.6171875 C10.05845163 43.49674064 10.05387117 48.37629864 10.04882812 53.25585938 C10.03808982 62.83725286 10.02101273 72.41862393 10 82 C2.37281535 85.39608663 2.37281535 85.39608663 -2.375 85.25 C-3.22835937 85.23453125 -4.08171875 85.2190625 -4.9609375 85.203125 C-7 85 -7 85 -8 84 C-8.09504251 81.47458998 -8.12557158 78.97662874 -8.11352539 76.45092773 C-8.11367142 75.66074249 -8.11381744 74.87055725 -8.1139679 74.056427 C-8.11326857 71.43212178 -8.10547527 68.80788664 -8.09765625 66.18359375 C-8.09579214 64.36898335 -8.0943682 62.55437244 -8.09336853 60.73976135 C-8.08954279 55.9540977 -8.07971204 51.1684642 -8.06866455 46.3828125 C-8.05845163 41.50325936 -8.05387117 36.62370136 -8.04882812 31.74414062 C-8.03808982 22.16274714 -8.02101273 12.58137607 -8 3 C-6.35 2.67 -4.7 2.34 -3 2 C-3.99 2.33 -4.98 2.66 -6 3 C-6 29.73 -6 56.46 -6 84 C-3.69 84 -1.38 84 1 84 C1 83.34 1 82.68 1 82 C3.31 82 5.62 82 8 82 C8 55.6 8 29.2 8 2 C5.36 2 2.72 2 0 2 C0 1.34 0 0.68 0 0 Z " fill="#9C4E58" transform="translate(180,197)"/>
<path d="M0 0 C0 11.55 0 23.1 0 35 C1.65 35.33 3.3 35.66 5 36 C4.67 36.66 4.34 37.32 4 38 C-3.17894737 39.27368421 -3.17894737 39.27368421 -7 38 C-7.99479708 30.61343587 -8.11836282 23.38444355 -8.0625 15.9375 C-8.05798828 14.78572266 -8.05347656 13.63394531 -8.04882812 12.44726562 C-8.03714426 9.63145482 -8.02076281 6.81575602 -8 4 C-11.3 3.67 -14.6 3.34 -18 3 C-18 12.9 -18 22.8 -18 33 C-18.33 33 -18.66 33 -19 33 C-19 22.77 -19 12.54 -19 2 C-14 0 -14 0 0 0 Z " fill="#F2534F" transform="translate(352,244)"/>
<path d="M0 0 C0.66 0 1.32 0 2 0 C2.33 19.8 2.66 39.6 3 60 C3.99 59.505 3.99 59.505 5 59 C5 60.32 5 61.64 5 63 C5.99 62.505 5.99 62.505 7 62 C7.46954261 58.95418731 7.46954261 58.95418731 7.625 55.4375 C7.69976562 54.23996094 7.77453125 53.04242188 7.8515625 51.80859375 C7.90054688 50.88175781 7.94953125 49.95492187 8 49 C8.33 49 8.66 49 9 49 C9 55.6 9 62.2 9 69 C8.01 69.495 8.01 69.495 7 70 C7.33 70.33 7.66 70.66 8 71 C8.04092937 73.33297433 8.04241723 75.66705225 8 78 C8.65073486 78.02505615 9.30146973 78.0501123 9.97192383 78.07592773 C12.91898046 78.19193702 15.8657213 78.31464115 18.8125 78.4375 C19.83666016 78.47681641 20.86082031 78.51613281 21.91601562 78.55664062 C22.89892578 78.59853516 23.88183594 78.64042969 24.89453125 78.68359375 C25.80050049 78.72025146 26.70646973 78.75690918 27.63989258 78.79467773 C30 79 30 79 33 80 C33 80.99 33 81.98 33 83 C17.16 83.495 17.16 83.495 1 84 C0 77 0 77 1 75 C1.99 75 2.98 75 4 75 C3.01 74.34 2.02 73.68 1 73 C0.60127258 69.98812866 0.60127258 69.98812866 0.56762695 66.07177734 C0.5574353 65.35947464 0.54724365 64.64717194 0.53674316 63.9132843 C0.50649972 61.55408988 0.49733033 59.19530068 0.48828125 56.8359375 C0.4714429 55.20210407 0.45329381 53.56828366 0.43388367 51.93447876 C0.38628555 47.63057524 0.35653993 43.3267245 0.33044434 39.02264404 C0.30068807 34.63217746 0.25414093 30.24189292 0.20898438 25.8515625 C0.12283976 17.23446423 0.05554443 8.61734957 0 0 Z " fill="#FDA83F" transform="translate(197,199)"/>
<path d="M0 0 C2.39954544 3.73631643 2.22993687 7.02795498 2.1953125 11.390625 C2.1924826 12.09523865 2.18965271 12.79985229 2.18673706 13.52581787 C2.17557801 15.7673876 2.15048193 18.00855186 2.125 20.25 C2.11496464 21.77343171 2.10583976 23.29686971 2.09765625 24.8203125 C2.07565291 28.54700586 2.04115272 32.27346333 2 36 C-0.33294775 36.04241723 -2.66702567 36.04092937 -5 36 C-6.90038976 34.09961024 -6.13058084 30.74801435 -6.1328125 28.2265625 C-6.13376923 27.54701508 -6.13472595 26.86746765 -6.13571167 26.16732788 C-6.13639348 24.72645984 -6.13453914 23.28558874 -6.13037109 21.84472656 C-6.12503921 19.64120541 -6.13030745 17.43788963 -6.13671875 15.234375 C-6.13605764 13.83593705 -6.13477581 12.43749923 -6.1328125 11.0390625 C-6.13168457 9.76240723 -6.13055664 8.48575195 -6.12939453 7.17041016 C-6 4 -6 4 -5 1 C-3.35 0.67 -1.7 0.34 0 0 Z " fill="#FBB03B" transform="translate(138,243)"/>
<path d="M0 0 C2.625 0.375 2.625 0.375 5 1 C5.0246519 5.82380802 5.04283693 10.64757967 5.05493164 15.47143555 C5.05997174 17.11369464 5.06680378 18.75594923 5.07543945 20.39819336 C5.08751926 22.75375479 5.09323139 25.10925709 5.09765625 27.46484375 C5.10281754 28.20339096 5.10797882 28.94193817 5.11329651 29.7028656 C5.1134925 31.46898088 5.06194719 33.23497146 5 35 C4 36 4 36 0.4375 36.0625 C-0.696875 36.041875 -1.83125 36.02125 -3 36 C-3.02926019 31.83334831 -3.04688594 27.66672341 -3.0625 23.5 C-3.07087891 22.32695312 -3.07925781 21.15390625 -3.08789062 19.9453125 C-3.12165353 7.92571679 -3.12165353 7.92571679 -2 2 C-1.34 1.34 -0.68 0.68 0 0 Z " fill="#FCB03A" transform="translate(404,243)"/>
<path d="M0 0 C2.64 0 5.28 0 8 0 C8 11.22 8 22.44 8 34 C6.02 34.66 4.04 35.32 2 36 C2 37.98 2 39.96 2 42 C1.01 41.67 0.02 41.34 -1 41 C-0.125 36.125 -0.125 36.125 1 35 C1.01695563 32.40426476 0.9710781 29.83863082 0.87890625 27.24609375 C0.84348976 26.08292381 0.84348976 26.08292381 0.80735779 24.89625549 C0.7305411 22.40982565 0.646595 19.92369331 0.5625 17.4375 C0.5092973 15.75587413 0.4565568 14.07423356 0.40429688 12.39257812 C0.27490179 8.26152894 0.1391106 4.13073298 0 0 Z " fill="#FCB039" transform="translate(401,199)"/>
<path d="M0 0 C10.23 0 20.46 0 31 0 C31 2.64 31 5.28 31 8 C30.21874756 8.01981934 29.43749512 8.03963867 28.63256836 8.06005859 C25.06722682 8.15575472 21.50243558 8.26525339 17.9375 8.375 C16.70837891 8.4059375 15.47925781 8.436875 14.21289062 8.46875 C8.15596296 8.66466141 2.71439565 8.91123131 -3 11 C-2.690625 10.484375 -2.38125 9.96875 -2.0625 9.4375 C-0.59175744 6.35837704 -0.59175744 6.35837704 0 0 Z " fill="#FCB03A" transform="translate(138,199)"/>
<path d="M0 0 C6.27 0 12.54 0 19 0 C19 8.58 19 17.16 19 26 C16.36 26 13.72 26 11 26 C11.00523682 25.36908447 11.01047363 24.73816895 11.01586914 24.08813477 C11.03657826 21.24626653 11.04964066 18.40441412 11.0625 15.5625 C11.07087891 14.56927734 11.07925781 13.57605469 11.08789062 12.55273438 C11.09111328 11.60849609 11.09433594 10.66425781 11.09765625 9.69140625 C11.10289307 8.81685791 11.10812988 7.94230957 11.11352539 7.04125977 C11.22784809 5.00559794 11.22784809 5.00559794 10 4 C7.70418219 3.92811529 5.42482931 4.00353568 3.12890625 4.0625 C1 4 1 4 -1 3 C-0.67 2.01 -0.34 1.02 0 0 Z " fill="#EF5651" transform="translate(333,207)"/>
<path d="M0 0 C1.43352212 0.00015908 2.86704998 0.00585132 4.30053711 0.01586914 C5.43041298 0.01799156 5.43041298 0.01799156 6.58311462 0.02015686 C8.99807646 0.02577163 11.41294687 0.03832656 13.82788086 0.05102539 C15.46134307 0.05603849 17.09480672 0.06060173 18.72827148 0.06469727 C22.74067671 0.07574585 26.75301326 0.09302033 30.76538086 0.11352539 C30.76538086 0.44352539 30.76538086 0.77352539 30.76538086 1.11352539 C29.77618652 1.12810791 28.78699219 1.14269043 27.76782227 1.15771484 C24.10355167 1.21561509 20.43990101 1.29284691 16.77612305 1.37597656 C15.18931121 1.40926519 13.60237983 1.43728486 12.01538086 1.45996094 C9.73621602 1.49343617 7.45815045 1.54574399 5.17944336 1.60180664 C4.46793121 1.60819656 3.75641907 1.61458649 3.02334595 1.62117004 C0.80533526 1.65362187 0.80533526 1.65362187 -2.23461914 2.11352539 C-3.22461914 3.59852539 -3.22461914 3.59852539 -4.23461914 5.11352539 C-5.55461914 5.11352539 -6.87461914 5.11352539 -8.23461914 5.11352539 C-8.13149414 6.20665039 -8.02836914 7.29977539 -7.92211914 8.42602539 C-8.07680664 10.25133789 -8.07680664 10.25133789 -8.23461914 12.11352539 C-9.05435715 12.54313065 -9.87409515 12.9727359 -10.71867371 13.4153595 C-13.56724894 14.90756621 -13.56724894 14.90756621 -13.83589172 18.16972351 C-13.82478867 19.42436905 -13.81368561 20.67901459 -13.80224609 21.97167969 C-13.80297623 22.66462128 -13.80370636 23.35756287 -13.80445862 24.07150269 C-13.80097611 26.36104738 -13.76208942 28.64855517 -13.72290039 30.93774414 C-13.71357448 32.52528268 -13.70645732 34.11283561 -13.70146179 35.70039368 C-13.68237409 39.87814083 -13.6332592 44.05501828 -13.57794189 48.23242188 C-13.52678691 52.4954044 -13.50395585 56.75852751 -13.47875977 61.02172852 C-13.42514112 69.38605985 -13.33980819 77.74968443 -13.23461914 86.11352539 C-13.89461914 86.11352539 -14.55461914 86.11352539 -15.23461914 86.11352539 C-16.64312524 83.29651319 -16.36187811 80.95015995 -16.36401367 77.79956055 C-16.36576599 77.15220444 -16.36751831 76.50484833 -16.36932373 75.83787537 C-16.37373335 73.69275245 -16.3708067 71.54771168 -16.36743164 69.40258789 C-16.3681051 67.91287215 -16.36907548 66.42315652 -16.37033081 64.93344116 C-16.37180671 61.80791174 -16.36965729 58.68241087 -16.36499023 55.55688477 C-16.35930288 51.55309072 -16.36256631 47.54936385 -16.3685627 43.54557228 C-16.37217964 40.46749365 -16.37102433 37.38943089 -16.36843491 34.31135178 C-16.36776826 32.83538174 -16.36858489 31.35941027 -16.37091446 29.88344193 C-16.37345846 27.81768238 -16.36957532 25.75203082 -16.36401367 23.6862793 C-16.36321808 22.51094635 -16.36242249 21.3356134 -16.36160278 20.12466431 C-16.25486522 17.59361681 -15.9793329 15.51944195 -15.23461914 13.11352539 C-13.91461914 12.78352539 -12.59461914 12.45352539 -11.23461914 12.11352539 C-11.23461914 9.47352539 -11.23461914 6.83352539 -11.23461914 4.11352539 C-10.10024414 3.63915039 -8.96586914 3.16477539 -7.79711914 2.67602539 C-1.84328283 0.06469368 -1.84328283 0.06469368 0 0 Z " fill="#55344E" transform="translate(139.234619140625,195.886474609375)"/>
<path d="M0 0 C1.29349365 0.00523682 2.5869873 0.01047363 3.91967773 0.01586914 C4.9496714 0.01799156 4.9496714 0.01799156 6.00047302 0.02015686 C8.20144949 0.0257706 10.40232557 0.03832532 12.60327148 0.05102539 C14.09220231 0.05603863 15.58113473 0.06060184 17.07006836 0.06469727 C20.72700223 0.07574446 24.38387707 0.09301826 28.04077148 0.11352539 C28.04077148 0.44352539 28.04077148 0.77352539 28.04077148 1.11352539 C18.14077148 1.44352539 8.24077148 1.77352539 -1.95922852 2.11352539 C-2.28922852 28.84352539 -2.61922852 55.57352539 -2.95922852 83.11352539 C-3.28922852 83.11352539 -3.61922852 83.11352539 -3.95922852 83.11352539 C-3.95922852 57.37352539 -3.95922852 31.63352539 -3.95922852 5.11352539 C-5.60922852 5.11352539 -7.25922852 5.11352539 -8.95922852 5.11352539 C-8.62922852 31.84352539 -8.29922852 58.57352539 -7.95922852 86.11352539 C-8.61922852 86.11352539 -9.27922852 86.11352539 -9.95922852 86.11352539 C-9.95922852 59.05352539 -9.95922852 31.99352539 -9.95922852 4.11352539 C-7.97922852 3.12352539 -5.99922852 2.13352539 -3.95922852 1.11352539 C-2.95922852 0.11352539 -2.95922852 0.11352539 0 0 Z " fill="#B5624E" transform="translate(248.959228515625,195.886474609375)"/>
<path d="M0 0 C0 21.78 0 43.56 0 66 C-0.99 66 -1.98 66 -3 66 C-3.19998932 57.69028882 -3.38373309 49.3804469 -3.54658794 41.06993294 C-3.62271727 37.21126662 -3.70449604 33.35289066 -3.79907227 29.49462891 C-3.89009147 25.7730733 -3.96641897 22.05148285 -4.03244972 18.32940292 C-4.06027987 16.90748686 -4.09345582 15.48566531 -4.13199425 14.06399918 C-4.18495549 12.0770075 -4.21737024 10.08949997 -4.2487793 8.10205078 C-4.27320602 6.96953888 -4.29763275 5.83702698 -4.32279968 4.67019653 C-4.21627579 3.78903168 -4.10975189 2.90786682 -4 2 C-1 0 -1 0 0 0 Z " fill="#F65352" transform="translate(321,210)"/>
<path d="M0 0 C0.80308594 -0.02578125 1.60617187 -0.0515625 2.43359375 -0.078125 C3.13613281 0.03015625 3.83867187 0.1384375 4.5625 0.25 C7.02355545 3.94158318 6.81825793 6.71623554 6.7578125 10.98046875 C6.7549826 11.73088943 6.75215271 12.48131012 6.74923706 13.25447083 C6.73805062 15.64897675 6.71294928 18.04310731 6.6875 20.4375 C6.67746819 22.06184355 6.66834269 23.68619297 6.66015625 25.31054688 C6.63811637 29.290509 6.6035974 33.27019088 6.5625 37.25 C5.5725 37.745 5.5725 37.745 4.5625 38.25 C4.5625 26.7 4.5625 15.15 4.5625 3.25 C-3.92825228 3.78860106 -3.92825228 3.78860106 -9.4375 6.25 C-9.4375 15.82 -9.4375 25.39 -9.4375 35.25 C-8.4475 34.755 -8.4475 34.755 -7.4375 34.25 C-7.4375 35.57 -7.4375 36.89 -7.4375 38.25 C-11.3975 38.25 -15.3575 38.25 -19.4375 38.25 C-19.4375 37.59 -19.4375 36.93 -19.4375 36.25 C-17.4575 36.25 -15.4775 36.25 -13.4375 36.25 C-13.39991577 34.8570874 -13.39991577 34.8570874 -13.36157227 33.43603516 C-13.26652068 29.99564196 -13.16728293 26.55542287 -13.06518555 23.11523438 C-13.02183411 21.62537359 -12.98015916 20.13546305 -12.94018555 18.64550781 C-12.88248785 16.50570673 -12.81879245 14.36615615 -12.75390625 12.2265625 C-12.69891968 10.29417725 -12.69891968 10.29417725 -12.64282227 8.32275391 C-12.4375 5.25 -12.4375 5.25 -11.4375 3.25 C-9.45026732 2.54618843 -7.44972047 1.8788189 -5.4375 1.25 C-3.84882134 -0.33867866 -2.19060484 0.04205961 0 0 Z " fill="#8B6B59" transform="translate(405.4375,195.75)"/>
<path d="M0 0 C1.2065625 0.0309375 1.2065625 0.0309375 2.4375 0.0625 C2.4375 0.7225 2.4375 1.3825 2.4375 2.0625 C1.1175 2.0625 -0.2025 2.0625 -1.5625 2.0625 C-1.5625 25.1625 -1.5625 48.2625 -1.5625 72.0625 C0.9125 71.5675 0.9125 71.5675 3.4375 71.0625 C5.4375 73.0625 5.4375 73.0625 6.4375 75.0625 C5.4475 75.0625 4.4575 75.0625 3.4375 75.0625 C3.1075 77.3725 2.7775 79.6825 2.4375 82.0625 C4.0875 82.0625 5.7375 82.0625 7.4375 82.0625 C7.4375 82.3925 7.4375 82.7225 7.4375 83.0625 C5.4575 83.0625 3.4775 83.0625 1.4375 83.0625 C1.355 81.94875 1.2725 80.835 1.1875 79.6875 C0.94 78.49125 0.6925 77.295 0.4375 76.0625 C-1.53992781 74.80240208 -1.53992781 74.80240208 -3.5625 74.0625 C-3.58562484 64.56175675 -3.6034158 55.06102312 -3.61431217 45.56025791 C-3.61954069 41.14912996 -3.62663777 36.7380212 -3.63793945 32.3269043 C-3.64876944 28.07348885 -3.65477707 23.82009191 -3.65737724 19.56666374 C-3.65923129 17.94028367 -3.66285152 16.31390466 -3.66823006 14.68753242 C-3.67544198 12.41739807 -3.67649088 10.14734115 -3.67602539 7.87719727 C-3.678246 6.58258072 -3.68046661 5.28796417 -3.68275452 3.95411682 C-3.52188584 0.08589965 -3.52188584 0.08589965 0 0 Z " fill="#AC5B5E" transform="translate(194.5625,198.9375)"/>
<path d="M0 0 C0 11.55 0 23.1 0 35 C0.66 35 1.32 35 2 35 C2 35.99 2 36.98 2 38 C-0.375 38.625 -0.375 38.625 -3 39 C-5.8559222 36.1440778 -5.32417563 33.29864216 -5.3359375 29.47265625 C-5.3425943 28.72793564 -5.3492511 27.98321503 -5.35610962 27.21592712 C-5.36624041 25.63982618 -5.37092651 24.0636823 -5.37060547 22.48754883 C-5.37497741 20.0749651 -5.41128472 17.66421276 -5.44921875 15.25195312 C-5.45508712 13.72136043 -5.45905638 12.19075904 -5.4609375 10.66015625 C-5.47530853 9.93820572 -5.48967957 9.21625519 -5.50448608 8.47242737 C-5.47386633 5.11836178 -5.452637 3.45550321 -3.03369141 1.02124023 C-1 0 -1 0 0 0 Z " fill="#EF594D" transform="translate(371,244)"/>
<path d="M0 0 C0.33 0 0.66 0 1 0 C1.33 6.93 1.66 13.86 2 21 C7.8785388 21.28920906 7.8785388 21.28920906 13.75756836 21.56811523 C14.48596924 21.60622314 15.21437012 21.64433105 15.96484375 21.68359375 C17.08814087 21.73858032 17.08814087 21.73858032 18.23413086 21.79467773 C20 22 20 22 21 23 C21.16796875 24.99609375 21.16796875 24.99609375 21.1875 27.4375 C21.20167969 28.24058594 21.21585938 29.04367188 21.23046875 29.87109375 C21 32 21 32 19 34 C12.76834028 36.95183882 8.61081835 36 1 36 C1 46.23 1 56.46 1 67 C0.67 67 0.34 67 0 67 C-0.0246519 62.17619198 -0.04283693 57.35242033 -0.05493164 52.52856445 C-0.05997174 50.88630536 -0.06680378 49.24405077 -0.07543945 47.60180664 C-0.08751926 45.24624521 -0.09323139 42.89074291 -0.09765625 40.53515625 C-0.10281754 39.79660904 -0.10797882 39.05806183 -0.11329651 38.2971344 C-0.1134925 36.53101912 -0.06194719 34.76502854 0 33 C2.11925604 30.88074396 6.6196093 31.58168983 9.5625 31.4375 C10.36880859 31.39431641 11.17511719 31.35113281 12.00585938 31.30664062 C14.00368805 31.20024738 16.0018207 31.09959112 18 31 C18 28.69 18 26.38 18 24 C16.78441406 24.01160156 15.56882813 24.02320313 14.31640625 24.03515625 C12.73177236 24.04453278 11.14713682 24.05363313 9.5625 24.0625 C8.76005859 24.07087891 7.95761719 24.07925781 7.13085938 24.08789062 C5.08704779 24.0965143 3.04316098 24.0522815 1 24 C0 23 0 23 -0.11352539 20.77514648 C-0.10828857 19.81680908 -0.10305176 18.85847168 -0.09765625 17.87109375 C-0.09443359 16.83662109 -0.09121094 15.80214844 -0.08789062 14.73632812 C-0.07951172 13.64771484 -0.07113281 12.55910156 -0.0625 11.4375 C-0.05798828 10.34501953 -0.05347656 9.25253906 -0.04882812 8.12695312 C-0.03699826 5.41791505 -0.02051543 2.70898401 0 0 Z " fill="#9B844D" transform="translate(141,211)"/>
<path d="M0 0 C1.2065625 0.0309375 1.2065625 0.0309375 2.4375 0.0625 C2.1075 2.0425 1.7775 4.0225 1.4375 6.0625 C0.1175 6.0625 -1.2025 6.0625 -2.5625 6.0625 C-2.8925 7.3825 -3.2225 8.7025 -3.5625 10.0625 C-4.2225 10.0625 -4.8825 10.0625 -5.5625 10.0625 C-5.5625 10.7225 -5.5625 11.3825 -5.5625 12.0625 C-6.5525 12.5575 -6.5525 12.5575 -7.5625 13.0625 C-7.8925 35.8325 -8.2225 58.6025 -8.5625 82.0625 C-10.99170859 78.41868712 -10.80535565 76.72637555 -10.78955078 72.38793945 C-10.78984283 71.714505 -10.79013489 71.04107056 -10.79043579 70.347229 C-10.78904344 68.12328161 -10.77348703 65.89967005 -10.7578125 63.67578125 C-10.75408203 62.13307376 -10.75123522 60.5903639 -10.74923706 59.0476532 C-10.74160329 54.98861136 -10.72195706 50.9297128 -10.6998291 46.87072754 C-10.67936512 42.7282912 -10.67023416 38.5858317 -10.66015625 34.44335938 C-10.63871088 26.31634052 -10.60457808 18.18943809 -10.5625 10.0625 C-8.5825 9.4025 -6.6025 8.7425 -4.5625 8.0625 C-4.418125 6.928125 -4.27375 5.79375 -4.125 4.625 C-3.40786082 0.08311856 -3.40786082 0.08311856 0 0 Z " fill="#9B352F" transform="translate(325.5625,198.9375)"/>
<path d="M0 0 C1.77007714 -0.08114106 3.54122098 -0.13925505 5.3125 -0.1875 C6.29863281 -0.22230469 7.28476562 -0.25710937 8.30078125 -0.29296875 C11 0 11 0 12.64840698 1.21257019 C14.42945415 3.5679366 14.3571829 4.95605798 14.32470703 7.8918457 C14.32125275 8.88751053 14.31779846 9.88317535 14.3142395 10.90901184 C14.29561859 11.98704575 14.27699768 13.06507965 14.2578125 14.17578125 C14.25119598 15.29252731 14.24457947 16.40927338 14.23776245 17.55986023 C14.21432125 21.14435069 14.17069626 24.72822987 14.125 28.3125 C14.07835936 32.99605117 14.04065875 37.6796143 14.0078125 42.36328125 C13.99840637 43.4838089 13.98900024 44.60433655 13.97930908 45.75881958 C13.94231838 52.72287063 14.15179596 59.55420814 14.87451172 66.48510742 C14.99586797 68.91719061 14.7371445 70.694122 14 73 C13.01 72.67 12.02 72.34 11 72 C10.67 48.9 10.34 25.8 10 2 C6.7 1.67 3.4 1.34 0 1 C0 0.67 0 0.34 0 0 Z " fill="#CD5753" transform="translate(257,209)"/>
<path d="M0 0 C1.47906892 -0.02689216 2.95827483 -0.04634621 4.4375 -0.0625 C5.26121094 -0.07410156 6.08492187 -0.08570313 6.93359375 -0.09765625 C9 0 9 0 10 1 C10.09504251 3.52541002 10.12557158 6.02337126 10.11352539 8.54907227 C10.11367142 9.33925751 10.11381744 10.12944275 10.1139679 10.943573 C10.11326857 13.56787822 10.10547527 16.19211336 10.09765625 18.81640625 C10.09579214 20.63101665 10.0943682 22.44562756 10.09336853 24.26023865 C10.08954279 29.0459023 10.07971204 33.8315358 10.06866455 38.6171875 C10.05845163 43.49674064 10.05387117 48.37629864 10.04882812 53.25585938 C10.03808982 62.83725286 10.02101273 72.41862393 10 82 C9.34 82 8.68 82 8 82 C8 55.6 8 29.2 8 2 C5.36 2 2.72 2 0 2 C0 1.34 0 0.68 0 0 Z " fill="#9A7D46" transform="translate(180,197)"/>
<path d="M0 0 C4.45821166 -0.08674429 8.91620804 -0.14030513 13.375 -0.1875 C14.64601563 -0.21263672 15.91703125 -0.23777344 17.2265625 -0.26367188 C18.43828125 -0.27333984 19.65 -0.28300781 20.8984375 -0.29296875 C22.01911621 -0.3086792 23.13979492 -0.32438965 24.29443359 -0.34057617 C25.18727051 -0.22818604 26.08010742 -0.1157959 27 0 C29.29013653 3.4352048 29.17842973 4.985331 29 9 C30.32 9.66 31.64 10.32 33 11 C33 34.76 33 58.52 33 83 C32.67 83 32.34 83 32 83 C31.505 47.36 31.505 47.36 31 11 C29.68 10.67 28.36 10.34 27 10 C26.67 7.69 26.34 5.38 26 3 C17.42 3 8.84 3 0 3 C0 2.01 0 1.02 0 0 Z " fill="#A2875A" transform="translate(282,196)"/>
<path d="M0 0 C1.93395001 3.86790003 2.23289353 5.1500459 2.125 9.25 C2.10695313 10.14203125 2.08890625 11.0340625 2.0703125 11.953125 C2.04710937 12.62859375 2.02390625 13.3040625 2 14 C2.66 14.33 3.32 14.66 4 15 C3.34 15 2.68 15 2 15 C2.03552979 15.98919434 2.07105957 16.97838867 2.10766602 17.99755859 C2.2378588 21.66128574 2.36108074 25.32521967 2.48217773 28.98925781 C2.53560756 30.57623729 2.59093771 32.16315395 2.64819336 33.75 C2.73007724 36.02850804 2.80516524 38.30715322 2.87890625 40.5859375 C2.90594131 41.29744965 2.93297638 42.00896179 2.96083069 42.74203491 C3.11387171 47.77225659 3.11387171 47.77225659 2 50 C5.465 49.505 5.465 49.505 9 49 C9 49.99 9 50.98 9 52 C6.03 52.495 6.03 52.495 3 53 C3 52.34 3 51.68 3 51 C2.01 51 1.02 51 0 51 C0 34.17 0 17.34 0 0 Z M3 9 C4.9375 9.6875 4.9375 9.6875 7 11 C7.75 13.625 7.75 13.625 8 16 C7.01 16.495 7.01 16.495 6 17 C5.835 17.825 5.67 18.65 5.5 19.5 C5.335 20.325 5.17 21.15 5 22 C4.01 22.495 4.01 22.495 3 23 C2.875 16.25 2.875 16.25 4 14 C3.72057545 12.32345271 3.39171753 10.65391846 3 9 Z " fill="#FDA741" transform="translate(323,228)"/>
<path d="M0 0 C0.33 0 0.66 0 1 0 C1.33 22.77 1.66 45.54 2 69 C4.31 69.66 6.62 70.32 9 71 C9 48.56 9 26.12 9 3 C9.33 3 9.66 3 10 3 C10 25.77 10 48.54 10 72 C2 72 2 72 0 71 C0 47.57 0 24.14 0 0 Z " fill="#E69E50" transform="translate(275,208)"/>
<path d="M0 0 C1.32 0 2.64 0 4 0 C4 10.56 4 21.12 4 32 C3.34 32 2.68 32 2 32 C1.67 31.34 1.34 30.68 1 30 C0.34 30.33 -0.32 30.66 -1 31 C-1.02465622 26.74585377 -1.04283899 22.49174502 -1.05493164 18.23754883 C-1.05997101 16.78929927 -1.06680253 15.34105483 -1.07543945 13.89282227 C-1.08752247 11.81525412 -1.09323211 9.73775303 -1.09765625 7.66015625 C-1.10289307 6.40855713 -1.10812988 5.15695801 -1.11352539 3.86743164 C-1 1 -1 1 0 0 Z " fill="#F1574D" transform="translate(396,201)"/>
<path d="M0 0 C8.25 0 16.5 0 25 0 C25 2.31 25 4.62 25 7 C21.58268208 6.8899083 18.16644426 6.75932939 14.75 6.625 C13.78191406 6.5940625 12.81382812 6.563125 11.81640625 6.53125 C10.88183594 6.49257812 9.94726562 6.45390625 8.984375 6.4140625 C8.12553711 6.3826416 7.26669922 6.3512207 6.38183594 6.31884766 C3.8717972 5.98283796 2.18067672 5.25808272 0 4 C0 2.68 0 1.36 0 0 Z " fill="#FCB138" transform="translate(330,199)"/>
<path d="M0 0 C0.9075 0.00257813 1.815 0.00515625 2.75 0.0078125 C4.11125 0.00394531 4.11125 0.00394531 5.5 0 C7.75 0.1328125 7.75 0.1328125 8.75 1.1328125 C8.83851529 3.72640572 8.86525945 6.29320941 8.84765625 8.88671875 C8.8462413 9.66216537 8.84482635 10.437612 8.84336853 11.23655701 C8.83775345 13.72284744 8.82519846 16.2090491 8.8125 18.6953125 C8.80748694 20.37695183 8.8029237 22.05859256 8.79882812 23.74023438 C8.78777913 27.87112816 8.77050445 32.00195526 8.75 36.1328125 C9.41 36.4628125 10.07 36.7928125 10.75 37.1328125 C9.76 37.1328125 8.77 37.1328125 7.75 37.1328125 C6.2735764 34.1799653 6.52727061 31.44832267 6.43359375 28.15625 C6.41281265 27.4710025 6.39203156 26.785755 6.37062073 26.07974243 C6.30519815 23.88920181 6.24627446 21.69854061 6.1875 19.5078125 C6.14430782 18.023425 6.1006933 16.53904972 6.05664062 15.0546875 C5.94952447 11.41419166 5.84823638 7.77355999 5.75 4.1328125 C-0.685 4.6278125 -0.685 4.6278125 -7.25 5.1328125 C-7.58 16.6828125 -7.91 28.2328125 -8.25 40.1328125 C-8.58 40.1328125 -8.91 40.1328125 -9.25 40.1328125 C-9.25 28.2528125 -9.25 16.3728125 -9.25 4.1328125 C-7.27 3.1428125 -5.29 2.1528125 -3.25 1.1328125 C-2.25 0.1328125 -2.25 0.1328125 0 0 Z " fill="#A98E50" transform="translate(373.25,195.8671875)"/>
<path d="M0 0 C0.99 0.33 1.98 0.66 3 1 C2.01 1.495 2.01 1.495 1 2 C0.66574265 4.37374861 0.66574265 4.37374861 1 7 C1.65637451 7.39243896 2.31274902 7.78487793 2.98901367 8.18920898 C5 10 5 10 5.4699707 13.42993164 C5.47609134 14.84007016 5.45996892 16.25041893 5.42578125 17.66015625 C5.42249313 18.40583359 5.41920502 19.15151093 5.41581726 19.91978455 C5.40540282 21.49421937 5.38546337 23.06861594 5.35668945 24.64282227 C5.31260013 27.05701701 5.2952525 29.47021806 5.28320312 31.88476562 C5.26977942 33.41407689 5.25485655 34.94337589 5.23828125 36.47265625 C5.23089432 37.19663101 5.22350739 37.92060577 5.21589661 38.66651917 C5.11838541 43.76322917 5.11838541 43.76322917 4 46 C2.02 46 0.04 46 -2 46 C-2 46.66 -2 47.32 -2 48 C-3.65 48 -5.3 48 -7 48 C-4.16604069 45.67210485 -2.70488428 44.92622107 1 44 C1.33 32.78 1.66 21.56 2 10 C0.68 10 -0.64 10 -2 10 C-2.1953125 3.9453125 -2.1953125 3.9453125 -2 2 C-1.34 1.34 -0.68 0.68 0 0 Z " fill="#A2864D" transform="translate(407,234)"/>
<path d="M0 0 C1.65 0.33 3.3 0.66 5 1 C5 3.64 5 6.28 5 9 C13.91 9 22.82 9 32 9 C32 9.99 32 10.98 32 12 C16.16 12.495 16.16 12.495 0 13 C-1 6 -1 6 0 4 C0.99 4 1.98 4 3 4 C2.01 3.34 1.02 2.68 0 2 C0 1.34 0 0.68 0 0 Z " fill="#EC6A40" transform="translate(198,270)"/>
<path d="M0 0 C0.1875 2.8125 0.1875 2.8125 0 6 C-0.73208427 6.63461906 -0.73208427 6.63461906 -1.47895813 7.28205872 C-3.80396108 9.90803413 -3.4423266 12.21825418 -3.52416992 15.67456055 C-3.54411514 16.347995 -3.56406036 17.02142944 -3.58460999 17.715271 C-3.64703714 19.93896556 -3.68883318 22.16254579 -3.73046875 24.38671875 C-3.76975228 25.92946094 -3.81032212 27.47217088 -3.85212708 29.0148468 C-3.95865389 33.07359045 -4.04769052 37.13253721 -4.13311768 41.19177246 C-4.22338824 45.33449219 -4.33015683 49.47678284 -4.43554688 53.61914062 C-4.63986706 61.74576445 -4.82571596 69.87267681 -5 78 C-5.33 78 -5.66 78 -6 78 C-6.02325092 69.28934199 -6.04097976 60.57869479 -6.05181217 51.86801243 C-6.05701323 47.82256022 -6.06406002 43.77712937 -6.07543945 39.73168945 C-6.08636756 35.82188141 -6.09229772 31.9120938 -6.09487724 28.00227165 C-6.09671371 26.51647559 -6.1002996 25.03068054 -6.10573006 23.54489326 C-6.13231418 15.96451847 -6.05655064 8.52015453 -5 1 C-1.125 0 -1.125 0 0 0 Z " fill="#F67A45" transform="translate(136,200)"/>
<path d="M0 0 C0.66 0 1.32 0 2 0 C2.33 11.22 2.66 22.44 3 34 C4.98 34.66 6.96 35.32 9 36 C9 25.11 9 14.22 9 3 C9.66 3.33 10.32 3.66 11 4 C10.67 14.89 10.34 25.78 10 37 C7.36 37.66 4.72 38.32 2 39 C2 38.01 2 37.02 2 36 C1.34 36 0.68 36 0 36 C0 24.12 0 12.24 0 0 Z " fill="#FE9C45" transform="translate(371,243)"/>
<path d="M0 0 C0.33 0 0.66 0 1 0 C1.06058594 0.96421875 1.12117188 1.9284375 1.18359375 2.921875 C1.26738281 4.18515625 1.35117188 5.4484375 1.4375 6.75 C1.51871094 8.00296875 1.59992188 9.2559375 1.68359375 10.546875 C1.86398226 13.74685982 1.86398226 13.74685982 2.51367188 15.74023438 C3.21924756 19.01875271 3.12221473 22.27296822 3.09765625 25.609375 C3.0962413 26.33618469 3.09482635 27.06299438 3.09336853 27.81182861 C3.08778792 30.12459494 3.07523904 32.43726312 3.0625 34.75 C3.05748249 36.32161318 3.05292002 37.89322789 3.04882812 39.46484375 C3.03782485 43.30993343 3.02057361 47.1549501 3 51 C1.515 51.495 1.515 51.495 0 52 C0 34.84 0 17.68 0 0 Z " fill="#F75354" transform="translate(126,225)"/>
<path d="M0 0 C0.33 0 0.66 0 1 0 C1 2.31 1 4.62 1 7 C0.34 7 -0.32 7 -1 7 C-1 7.66 -1 8.32 -1 9 C-1.99 9 -2.98 9 -4 9 C-3.99419922 10.1334082 -3.98839844 11.26681641 -3.98242188 12.43457031 C-3.93292448 26.8782898 -4.19563435 41.30999468 -4.5 55.75 C-4.54836279 58.11588163 -4.59654095 60.48176704 -4.64453125 62.84765625 C-4.76089966 68.56514936 -4.87951934 74.28259214 -5 80 C-5.33 80 -5.66 80 -6 80 C-6.02315469 70.79456595 -6.04093108 61.58914191 -6.05181217 52.38368511 C-6.05703414 48.10937663 -6.06411938 43.83508805 -6.07543945 39.56079102 C-6.08629265 35.43704342 -6.09228202 31.31331499 -6.09487724 27.18955421 C-6.09672709 25.61506664 -6.1003393 24.04058013 -6.10573006 22.46610069 C-6.11297274 20.26342871 -6.11398957 18.06083624 -6.11352539 15.8581543 C-6.115746 14.60350876 -6.11796661 13.34886322 -6.12025452 12.05619812 C-6 9 -6 9 -5 6 C-3.68 6 -2.36 6 -1 6 C-0.67 4.02 -0.34 2.04 0 0 Z " fill="#F1743F" transform="translate(328,199)"/>
<path d="M0 0 C0.33 0 0.66 0 1 0 C1 26.07 1 52.14 1 79 C1.99 79 2.98 79 4 79 C4 76.36 4 73.72 4 71 C4.33 71 4.66 71 5 71 C5 73.31 5 75.62 5 78 C5.99 78 6.98 78 8 78 C8 78.99 8 79.98 8 81 C5.125 81.625 5.125 81.625 2 82 C-0.48839325 79.51160675 -0.23503088 78.06910338 -0.24884033 74.67425537 C-0.24164978 73.93338684 -0.23445923 73.19251831 -0.22705078 72.42919922 C-0.22748886 71.25833267 -0.22748886 71.25833267 -0.22793579 70.06381226 C-0.22653968 67.47732522 -0.21096542 64.89112436 -0.1953125 62.3046875 C-0.19158337 60.51392779 -0.18873592 58.72316604 -0.18673706 56.93240356 C-0.17909275 52.21411528 -0.15943745 47.49594969 -0.1373291 42.77770996 C-0.11688782 37.96510478 -0.10773903 33.15247981 -0.09765625 28.33984375 C-0.07619228 18.89317519 -0.04204675 9.44659779 0 0 Z " fill="#E35957" transform="translate(240,201)"/>
<path d="M0 0 C0.66 0 1.32 0 2 0 C2 3.3 2 6.6 2 10 C-5.20519519 13.31438979 -11.49260439 14.15515022 -19.375 14.0625 C-20.11105469 14.05798828 -20.84710938 14.05347656 -21.60546875 14.04882812 C-23.40368158 14.03715142 -25.20185197 14.01922011 -27 14 C-27 12.68 -27 11.36 -27 10 C-18.09 10 -9.18 10 0 10 C0 6.7 0 3.4 0 0 Z " fill="#C0694C" transform="translate(169,197)"/>
<path d="M0 0 C0.99 0 1.98 0 3 0 C3.0740719 4.37821909 3.12856375 8.75610782 3.16479492 13.13476562 C3.179896 14.62473909 3.20037858 16.11466801 3.22631836 17.60449219 C3.26264584 19.7442523 3.27971221 21.88342566 3.29296875 24.0234375 C3.3086792 25.31169434 3.32438965 26.59995117 3.34057617 27.92724609 C3.22818604 28.94125488 3.1157959 29.95526367 3 31 C2.01 31.66 1.02 32.32 0 33 C0 22.11 0 11.22 0 0 Z " fill="#F3534D" transform="translate(367,201)"/>
<path d="M0 0 C2.29160319 -0.02692484 4.58329546 -0.04636124 6.875 -0.0625 C8.15117187 -0.07410156 9.42734375 -0.08570313 10.7421875 -0.09765625 C14 0 14 0 16 1 C16 2.65 16 4.3 16 6 C15.01 6.33 14.02 6.66 13 7 C12.67 6.34 12.34 5.68 12 5 C11.67 11.6 11.34 18.2 11 25 C10.34 24.67 9.68 24.34 9 24 C9.00523682 23.39937744 9.01047363 22.79875488 9.01586914 22.17993164 C9.03658014 19.47413162 9.04964125 16.76834823 9.0625 14.0625 C9.07087891 13.11697266 9.07925781 12.17144531 9.08789062 11.19726562 C9.09111328 10.29814453 9.09433594 9.39902344 9.09765625 8.47265625 C9.10289307 7.64000244 9.10812988 6.80734863 9.11352539 5.94946289 C9.21643292 3.99483202 9.21643292 3.99483202 8 3 C6.48071962 2.92820036 4.95832518 2.91607993 3.4375 2.9375 C2.19806641 2.95103516 2.19806641 2.95103516 0.93359375 2.96484375 C-0.02353516 2.98224609 -0.02353516 2.98224609 -1 3 C-0.67 2.01 -0.34 1.02 0 0 Z " fill="#A34944" transform="translate(335,208)"/>
<path d="M0 0 C0.99 0.33 1.98 0.66 3 1 C3.1875 4.375 3.1875 4.375 3 8 C2.01 8.66 1.02 9.32 0 10 C-0.26686213 12.69540315 -0.34818073 15.15847464 -0.29296875 17.8515625 C-0.28872391 18.62559418 -0.28447906 19.39962585 -0.28010559 20.19711304 C-0.26328998 22.67342677 -0.22563395 25.14893158 -0.1875 27.625 C-0.17245682 29.30207159 -0.15876778 30.97915592 -0.14648438 32.65625 C-0.11337721 36.77114581 -0.06157637 40.88543569 0 45 C-0.99 44.67 -1.98 44.34 -3 44 C-3 32.45 -3 20.9 -3 9 C-1.68 8.67 -0.36 8.34 1 8 C0.67 5.36 0.34 2.72 0 0 Z " fill="#995153" transform="translate(367,237)"/>
<path d="M0 0 C0.33 0 0.66 0 1 0 C1 22.77 1 45.54 1 69 C-1.64 69.99 -4.28 70.98 -7 72 C-7 70.68 -7 69.36 -7 68 C-4.03 67.01 -4.03 67.01 -1 66 C-0.67 44.22 -0.34 22.44 0 0 Z " fill="#D3A84E" transform="translate(255,210)"/>
<path d="M0 0 C0.9075 0.144375 1.815 0.28875 2.75 0.4375 C8.14026126 1.21547585 13.57239588 1.58112086 19 2 C19 2.66 19 3.32 19 4 C13.72 4.66 8.44 5.32 3 6 C2.67 15.24 2.34 24.48 2 34 C1.67 34 1.34 34 1 34 C0.85672455 29.80080999 0.71433404 25.60159118 0.57275391 21.40234375 C0.5244931 19.97460118 0.47599293 18.54686668 0.42724609 17.11914062 C0.35711339 15.06382299 0.28784908 13.00847762 0.21875 10.953125 C0.17685547 9.71723633 0.13496094 8.48134766 0.09179688 7.20800781 C0.02306725 4.80612685 0 2.40286411 0 0 Z M-3 4 C-2.01 4.33 -1.02 4.66 0 5 C-0.99 6.485 -0.99 6.485 -2 8 C-2.33 6.68 -2.66 5.36 -3 4 Z " fill="#F29C3B" transform="translate(331,240)"/>
<path d="M0 0 C0.33 0 0.66 0 1 0 C1.33 22.11 1.66 44.22 2 67 C3.32 67.66 4.64 68.32 6 69 C6 69.66 6 70.32 6 71 C3.36 71 0.72 71 -2 71 C-1.01 70.01 -1.01 70.01 0 69 C0.29393839 66.00366169 0.29393839 66.00366169 0.22705078 62.43896484 C0.22734283 61.76567642 0.22763489 61.092388 0.22793579 60.3986969 C0.22654047 58.16931346 0.21097016 55.94026268 0.1953125 53.7109375 C0.19158308 52.16680077 0.18873577 50.62266167 0.18673706 49.07852173 C0.17909499 45.01124557 0.15944168 40.94411189 0.1373291 36.87689209 C0.11688296 32.7278435 0.10773799 28.57877193 0.09765625 24.4296875 C0.07619625 16.28639289 0.04205349 8.14321416 0 0 Z " fill="#ED5546" transform="translate(273,211)"/>
<path d="M0 0 C3.63 0 7.26 0 11 0 C11 2.31 11 4.62 11 7 C0.44191344 7.18451025 0.44191344 7.18451025 -4 6 C-4 5.01 -4 4.02 -4 3 C-2.35 2.67 -0.7 2.34 1 2 C0.67 1.34 0.34 0.68 0 0 Z " fill="#FCB237" transform="translate(148,235)"/>
<path d="M0 0 C0 25.41 0 50.82 0 77 C-0.33 77 -0.66 77 -1 77 C-1 52.91 -1 28.82 -1 4 C-1.66 4 -2.32 4 -3 4 C-3 3.01 -3 2.02 -3 1 C-1 0 -1 0 0 0 Z " fill="#EE5545" transform="translate(178,201)"/>
<path d="M0 0 C0 11.88 0 23.76 0 36 C1.32 36.33 2.64 36.66 4 37 C1.525 37.495 1.525 37.495 -1 38 C-1 26.12 -1 14.24 -1 2 C-2.98 2.33 -4.96 2.66 -7 3 C-9.12411996 3.06460219 -11.25002905 3.08611079 -13.375 3.0625 C-14.96441406 3.04896484 -14.96441406 3.04896484 -16.5859375 3.03515625 C-17.38257813 3.02355469 -18.17921875 3.01195312 -19 3 C-19 2.34 -19 1.68 -19 1 C-13.32745403 -1.83627298 -6.3420992 0 0 0 Z " fill="#ED6A41" transform="translate(400,243)"/>
<path d="M0 0 C0.33 0 0.66 0 1 0 C2.05357378 7.15367744 2.32045599 14.27835896 2.5625 21.5 C2.60568359 22.70398438 2.64886719 23.90796875 2.69335938 25.1484375 C2.79873168 28.09886193 2.90085903 31.04936071 3 34 C0.525 34.495 0.525 34.495 -2 35 C-2 34.34 -2 33.68 -2 33 C-1.34 33 -0.68 33 0 33 C0 22.11 0 11.22 0 0 Z " fill="#FC9C41" transform="translate(400,200)"/>
<path d="M0 0 C3.96930989 -0.02465881 7.93859034 -0.04284023 11.90795898 -0.05493164 C13.25920386 -0.05997057 14.61044326 -0.06680177 15.96166992 -0.07543945 C17.90020434 -0.08752419 19.838778 -0.09269828 21.77734375 -0.09765625 C23.52905884 -0.10551147 23.52905884 -0.10551147 25.31616211 -0.11352539 C28 0 28 0 29 1 C29.14115161 3.67058851 29.04247107 6.32432238 29 9 C28.34 9 27.68 9 27 9 C27 7.02 27 5.04 27 3 C18.42 3 9.84 3 1 3 C0.67 2.01 0.34 1.02 0 0 Z " fill="#8D7138" transform="translate(329,196)"/>
<path d="M0 0 C1.37478516 0.01740234 1.37478516 0.01740234 2.77734375 0.03515625 C3.69644531 0.04417969 4.61554688 0.05320313 5.5625 0.0625 C6.27277344 0.07410156 6.98304688 0.08570313 7.71484375 0.09765625 C7.05484375 1.41765625 6.39484375 2.73765625 5.71484375 4.09765625 C-0.72015625 4.59265625 -0.72015625 4.59265625 -7.28515625 5.09765625 C-7.61515625 16.64765625 -7.94515625 28.19765625 -8.28515625 40.09765625 C-8.61515625 40.09765625 -8.94515625 40.09765625 -9.28515625 40.09765625 C-9.28515625 28.21765625 -9.28515625 16.33765625 -9.28515625 4.09765625 C-7.30515625 3.10765625 -5.32515625 2.11765625 -3.28515625 1.09765625 C-2.28515625 0.09765625 -2.28515625 0.09765625 0 0 Z " fill="#673E43" transform="translate(373.28515625,195.90234375)"/>
<path d="M0 0 C0.66 0 1.32 0 2 0 C2.66 11.55 3.32 23.1 4 35 C3.01 35 2.02 35 1 35 C-0.02540318 27.45077186 -0.11725965 20.04909157 -0.0625 12.4375 C-0.05798828 11.23802734 -0.05347656 10.03855469 -0.04882812 8.80273438 C-0.03713769 5.86843641 -0.02075138 2.93424551 0 0 Z " fill="#9D5150" transform="translate(344,247)"/>
<path d="M0 0 C1.74216797 0.02707031 1.74216797 0.02707031 3.51953125 0.0546875 C4.39996094 0.07789063 5.28039062 0.10109375 6.1875 0.125 C6.1875 0.455 6.1875 0.785 6.1875 1.125 C-0.05793661 3.29732578 -3.64126967 3.125 -10.8125 3.125 C-10.8125 13.025 -10.8125 22.925 -10.8125 33.125 C-11.1425 33.125 -11.4725 33.125 -11.8125 33.125 C-11.8125 22.895 -11.8125 12.665 -11.8125 2.125 C-7.11468827 0.24587531 -4.88330262 -0.09865258 0 0 Z " fill="#BB7A52" transform="translate(344.8125,243.875)"/>
<path d="M0 0 C1.32 0.66 2.64 1.32 4 2 C4.33 1.34 4.66 0.68 5 0 C5.63019694 8.19256018 5.63019694 8.19256018 3 11.5625 C2.34 12.036875 1.68 12.51125 1 13 C0.67 12.34 0.34 11.68 0 11 C-0.66 10.67 -1.32 10.34 -2 10 C-1.34 10 -0.68 10 0 10 C0 6.7 0 3.4 0 0 Z " fill="#F3913E" transform="translate(277,197)"/>
<path d="M0 0 C6.27 0 12.54 0 19 0 C19 8.58 19 17.16 19 26 C18.67 26 18.34 26 18 26 C18 18.08 18 10.16 18 2 C15.421875 1.979375 12.84375 1.95875 10.1875 1.9375 C9.37949951 1.928396 8.57149902 1.91929199 7.73901367 1.90991211 C4.55618187 1.89753376 2.03943678 1.98685441 -1 3 C-0.67 2.01 -0.34 1.02 0 0 Z " fill="#EE6A44" transform="translate(333,207)"/>
<path d="M0 0 C0.33 0 0.66 0 1 0 C1 11.55 1 23.1 1 35 C2.65 35.33 4.3 35.66 6 36 C5.67 36.66 5.34 37.32 5 38 C1.125 37.125 1.125 37.125 0 36 C-0.08855161 33.3337397 -0.11524673 30.69352886 -0.09765625 28.02734375 C-0.0962413 27.22970108 -0.09482635 26.43205841 -0.09336853 25.61024475 C-0.08775316 23.05262565 -0.07519812 20.49509282 -0.0625 17.9375 C-0.05748698 16.20768355 -0.05292373 14.47786574 -0.04882812 12.74804688 C-0.03777875 8.49866447 -0.02050386 4.24934688 0 0 Z " fill="#EC6847" transform="translate(351,244)"/>
<path d="M0 0 C0.66 0.33 1.32 0.66 2 1 C1.67 11.89 1.34 22.78 1 34 C-1.64 34.66 -4.28 35.32 -7 36 C-7 35.01 -7 34.02 -7 33 C-4.69 33 -2.38 33 0 33 C0 22.11 0 11.22 0 0 Z " fill="#CA9C54" transform="translate(380,246)"/>
<path d="M0 0 C0.33 0 0.66 0 1 0 C1.19625099 3.95795086 1.38051982 7.91636935 1.5625 11.875 C1.61857422 13.00292969 1.67464844 14.13085938 1.73242188 15.29296875 C1.78076172 16.36933594 1.82910156 17.44570313 1.87890625 18.5546875 C1.9260376 19.54968262 1.97316895 20.54467773 2.02172852 21.56982422 C2 24 2 24 1 26 C4.465 25.505 4.465 25.505 8 25 C8 25.99 8 26.98 8 28 C6.02 28.33 4.04 28.66 2 29 C2 28.34 2 27.68 2 27 C1.34 27 0.68 27 0 27 C0 18.09 0 9.18 0 0 Z " fill="#F5AC47" transform="translate(324,252)"/>
<path d="M0 0 C0.99 0 1.98 0 3 0 C3 2.31 3 4.62 3 7 C10.26 7.33 17.52 7.66 25 8 C25 8.33 25 8.66 25 9 C17.08 9 9.16 9 1 9 C0.67 6.03 0.34 3.06 0 0 Z " fill="#FEAA48" transform="translate(202,270)"/>
<path d="M0 0 C0.33 0 0.66 0 1 0 C1 2.31 1 4.62 1 7 C0.34 7 -0.32 7 -1 7 C-1 7.66 -1 8.32 -1 9 C-1.99 9 -2.98 9 -4 9 C-4 15.6 -4 22.2 -4 29 C-4.33 29 -4.66 29 -5 29 C-5 21.41 -5 13.82 -5 6 C-3.68 6 -2.36 6 -1 6 C-0.67 4.02 -0.34 2.04 0 0 Z " fill="#F78544" transform="translate(328,199)"/>
<path d="M0 0 C0.99 0 1.98 0 3 0 C3.33 0.66 3.66 1.32 4 2 C4.66 2.144375 5.32 2.28875 6 2.4375 C6.66 2.623125 7.32 2.80875 8 3 C8.33 3.99 8.66 4.98 9 6 C1.25 7.125 1.25 7.125 -1 6 C-0.67 4.02 -0.34 2.04 0 0 Z " fill="#E3534B" transform="translate(318,276)"/>
<path d="M0 0 C0.33 0 0.66 0 1 0 C1.33 7.26 1.66 14.52 2 22 C3.32 22.66 4.64 23.32 6 24 C6 24.66 6 25.32 6 26 C3.36 26 0.72 26 -2 26 C-1.34 25.34 -0.68 24.68 0 24 C0.27808217 21.47622345 0.27808217 21.47622345 0.1953125 18.5546875 C0.18886719 17.47832031 0.18242187 16.40195312 0.17578125 15.29296875 C0.15902344 14.16503906 0.14226562 13.03710938 0.125 11.875 C0.11597656 10.73933594 0.10695313 9.60367187 0.09765625 8.43359375 C0.07403098 5.62218701 0.04109013 2.81119702 0 0 Z " fill="#E55B4C" transform="translate(273,256)"/>
<path d="M0 0 C0.33 0 0.66 0 1 0 C1.01458252 0.8878418 1.02916504 1.77568359 1.04418945 2.69042969 C1.10534534 5.99327962 1.17951378 9.29530915 1.26245117 12.59765625 C1.29564794 14.02527914 1.32369631 15.45303163 1.34643555 16.88085938 C1.38008013 18.93675815 1.43239562 20.99147512 1.48828125 23.046875 C1.51446533 24.28276367 1.54064941 25.51865234 1.56762695 26.79199219 C2.02076282 30.1540505 2.71142196 31.55956055 5 34 C3.35 33.67 1.7 33.34 0 33 C0 22.11 0 11.22 0 0 Z " fill="#FD9346" transform="translate(371,200)"/>
<path d="M0 0 C2.31 0 4.62 0 7 0 C5.68 0.33 4.36 0.66 3 1 C3.103125 2.093125 3.20625 3.18625 3.3125 4.3125 C3.1578125 6.1378125 3.1578125 6.1378125 3 8 C0.625 9.8125 0.625 9.8125 -2 11 C-2.66 11.66 -3.32 12.32 -4 13 C-4 11.68 -4 10.36 -4 9 C-2.68 8.67 -1.36 8.34 0 8 C0 5.36 0 2.72 0 0 Z " fill="#854E5A" transform="translate(128,200)"/>
<path d="M0 0 C0.66 0 1.32 0 2 0 C2.22185844 2.26955186 2.42705515 4.54073755 2.625 6.8125 C2.74101562 8.07707031 2.85703125 9.34164063 2.9765625 10.64453125 C3 14 3 14 1 17 C0 16 0 16 -0.09765625 12.40234375 C-0.0909822 10.91403133 -0.07902183 9.42573568 -0.0625 7.9375 C-0.05798828 7.17888672 -0.05347656 6.42027344 -0.04882812 5.63867188 C-0.0370068 3.75908129 -0.01907078 1.87953101 0 0 Z " fill="#E75956" transform="translate(269,264)"/>
<path d="M0 0 C3.63 0 7.26 0 11 0 C11 0.99 11 1.98 11 3 C7.04 3 3.08 3 -1 3 C-0.67 2.01 -0.34 1.02 0 0 Z " fill="#DF7249" transform="translate(142,243)"/>
<path d="M0 0 C1.32 0.66 2.64 1.32 4 2 C4 2.66 4 3.32 4 4 C3.01 4 2.02 4 1 4 C0.67 6.31 0.34 8.62 0 11 C1.65 11 3.3 11 5 11 C5 11.33 5 11.66 5 12 C3.02 12 1.04 12 -1 12 C-1.12375 10.88625 -1.2475 9.7725 -1.375 8.625 C-1.6465813 4.96896323 -1.6465813 4.96896323 -4 3 C-2.68 3 -1.36 3 0 3 C0 2.01 0 1.02 0 0 Z " fill="#C94F51" transform="translate(197,270)"/>
<path d="M0 0 C2.97 0 5.94 0 9 0 C9 0.99 9 1.98 9 3 C5.7 3.33 2.4 3.66 -1 4 C-0.67 2.68 -0.34 1.36 0 0 Z " fill="#9B8251" transform="translate(401,196)"/>
<path d="M0 0 C0.99 0.495 0.99 0.495 2 1 C4.71262116 1.2322646 7.40773126 1.41936235 10.125 1.5625 C11.25615234 1.62727539 11.25615234 1.62727539 12.41015625 1.69335938 C14.27321888 1.7994832 16.13658524 1.90025001 18 2 C18 2.33 18 2.66 18 3 C17.02417969 3.03738281 16.04835937 3.07476562 15.04296875 3.11328125 C13.13451172 3.21189453 13.13451172 3.21189453 11.1875 3.3125 C9.29064453 3.39951172 9.29064453 3.39951172 7.35546875 3.48828125 C4.03396307 3.7113494 4.03396307 3.7113494 2.05078125 5.54296875 C1.70402344 6.02378906 1.35726562 6.50460938 1 7 C0.67 4.69 0.34 2.38 0 0 Z " fill="#FCA540" transform="translate(138,240)"/>
<path d="M0 0 C0 1.98 0 3.96 0 6 C-1.65 6.66 -3.3 7.32 -5 8 C-5 5.69 -5 3.38 -5 1 C-1.125 0 -1.125 0 0 0 Z " fill="#EF604A" transform="translate(136,200)"/>
<path d="M0 0 C0.33 0 0.66 0 1 0 C1 2.31 1 4.62 1 7 C3.31 7 5.62 7 8 7 C8 6.34 8 5.68 8 5 C10.64 5 13.28 5 16 5 C16 5.33 16 5.66 16 6 C10.60539047 8.27141454 5.73842251 8.20413361 0 8 C0 5.36 0 2.72 0 0 Z " fill="#C06C5D" transform="translate(173,274)"/>
<path d="M0 0 C0.99 0 1.98 0 3 0 C3 2.64 3 5.28 3 8 C1.35 8.33 -0.3 8.66 -2 9 C-1.67 7.88625 -1.34 6.7725 -1 5.625 C0.088643 2.30540283 0.088643 2.30540283 0 0 Z " fill="#EB6643" transform="translate(373,234)"/>
<path d="M0 0 C1.33998047 0.06960937 1.33998047 0.06960937 2.70703125 0.140625 C3.60808594 0.17671875 4.50914062 0.2128125 5.4375 0.25 C6.46810547 0.31960937 6.46810547 0.31960937 7.51953125 0.390625 C6.85953125 1.710625 6.19953125 3.030625 5.51953125 4.390625 C1.88953125 4.390625 -1.74046875 4.390625 -5.48046875 4.390625 C-2.48046875 0.390625 -2.48046875 0.390625 0 0 Z " fill="#886A3B" transform="translate(373.48046875,195.609375)"/>
<path d="M0 0 C0.33 0 0.66 0 1 0 C1 2.31 1 4.62 1 7 C1.99 7 2.98 7 4 7 C4 7.99 4 8.98 4 10 C2.02 10.33 0.04 10.66 -2 11 C-2.33 10.01 -2.66 9.02 -3 8 C-2.01 8 -1.02 8 0 8 C0 5.36 0 2.72 0 0 Z " fill="#E95946" transform="translate(244,272)"/>
<path d="M0 0 C0.99 0 1.98 0 3 0 C3.33 2.31 3.66 4.62 4 7 C2.35 7 0.7 7 -1 7 C-0.67 4.69 -0.34 2.38 0 0 Z " fill="#F45454" transform="translate(198,274)"/>
<path d="M0 0 C0.33 0.66 0.66 1.32 1 2 C0.34 2 -0.32 2 -1 2 C-1 2.66 -1 3.32 -1 4 C-1.99 4.495 -1.99 4.495 -3 5 C-3.47001033 8.27555608 -3.47001033 8.27555608 -3.625 12.0625 C-3.69976562 13.35285156 -3.77453125 14.64320313 -3.8515625 15.97265625 C-3.90054687 16.97167969 -3.94953125 17.97070312 -4 19 C-4.33 19 -4.66 19 -5 19 C-5.05397335 16.5622037 -5.09365616 14.12560315 -5.125 11.6875 C-5.14175781 10.99720703 -5.15851563 10.30691406 -5.17578125 9.59570312 C-5.21217794 5.82864604 -5.14378864 4.21568296 -3 1 C-2.01 0.67 -1.02 0.34 0 0 Z " fill="#BC5E56" transform="translate(321,207)"/>
<path d="M0 0 C1.47906892 -0.02689216 2.95827483 -0.04634621 4.4375 -0.0625 C5.26121094 -0.07410156 6.08492187 -0.08570313 6.93359375 -0.09765625 C9 0 9 0 10 1 C10.04063832 2.66617115 10.042721 4.33388095 10 6 C9.67 4.68 9.34 3.36 9 2 C5.7 2.33 2.4 2.66 -1 3 C-0.67 2.01 -0.34 1.02 0 0 Z " fill="#918758" transform="translate(198,196)"/>
<path d="M0 0 C0.33 1.32 0.66 2.64 1 4 C-2.96 4 -6.92 4 -11 4 C-11 3.34 -11 2.68 -11 2 C-10.28972656 1.93941406 -9.57945312 1.87882813 -8.84765625 1.81640625 C-7.46900391 1.69072266 -7.46900391 1.69072266 -6.0625 1.5625 C-5.14597656 1.48128906 -4.22945313 1.40007812 -3.28515625 1.31640625 C-1.03840268 1.23955024 -1.03840268 1.23955024 0 0 Z " fill="#BA613B" transform="translate(397,230)"/>
<path d="M0 0 C3.3 0 6.6 0 10 0 C10 0.99 10 1.98 10 3 C6.37 3 2.74 3 -1 3 C-0.67 2.01 -0.34 1.02 0 0 Z " fill="#D8624E" transform="translate(335,208)"/>
<path d="M0 0 C0.99 0.33 1.98 0.66 3 1 C2.01 1.495 2.01 1.495 1 2 C1.33 4.64 1.66 7.28 2 10 C0.68 10 -0.64 10 -2 10 C-2.1953125 3.9453125 -2.1953125 3.9453125 -2 2 C-1.34 1.34 -0.68 0.68 0 0 Z " fill="#958242" transform="translate(407,234)"/>
<path d="M0 0 C6.27 0 12.54 0 19 0 C19 0.33 19 0.66 19 1 C17.21142578 1.09087891 17.21142578 1.09087891 15.38671875 1.18359375 C13.82030075 1.26801149 12.25389512 1.35265887 10.6875 1.4375 C9.90181641 1.47681641 9.11613281 1.51613281 8.30664062 1.55664062 C7.54931641 1.59853516 6.79199219 1.64042969 6.01171875 1.68359375 C5.31522217 1.72025146 4.61872559 1.75690918 3.90112305 1.79467773 C1.7783428 1.95581153 1.7783428 1.95581153 -1 3 C-0.67 2.01 -0.34 1.02 0 0 Z " fill="#F1813B" transform="translate(333,207)"/>
<path d="M0 0 C1.98 0.99 1.98 0.99 4 2 C4.33 1.34 4.66 0.68 5 0 C5 2.97 5 5.94 5 9 C4.01 9 3.02 9 2 9 C2.33 7.35 2.66 5.7 3 4 C2.01 3.34 1.02 2.68 0 2 C0 1.34 0 0.68 0 0 Z " fill="#BC623D" transform="translate(277,197)"/>
<path d="M0 0 C0.33 1.32 0.66 2.64 1 4 C-1.31 4.66 -3.62 5.32 -6 6 C-6 4.68 -6 3.36 -6 2 C-4.02 1.34 -2.04 0.68 0 0 Z " fill="#E0A250" transform="translate(254,276)"/>
<path d="M0 0 C0.33 0.99 0.66 1.98 1 3 C-0.32 3.33 -1.64 3.66 -3 4 C-3.33 5.98 -3.66 7.96 -4 10 C-4.33 10 -4.66 10 -5 10 C-5 7.03 -5 4.06 -5 1 C-3.35 0.67 -1.7 0.34 0 0 Z " fill="#9D575C" transform="translate(399,198)"/>
<path d="M0 0 C0.66 0.33 1.32 0.66 2 1 C2 3.64 2 6.28 2 9 C1.34 9 0.68 9 0 9 C0 7.02 0 5.04 0 3 C-0.99 2.67 -1.98 2.34 -3 2 C-2.01 2 -1.02 2 0 2 C0 1.34 0 0.68 0 0 Z " fill="#B3954E" transform="translate(356,196)"/>
<path d="M0 0 C0.99 0 1.98 0 3 0 C3.93065133 2.60582371 4.14917407 3.64198224 3.0625 6.25 C2.5365625 7.11625 2.5365625 7.11625 2 8 C1.67 8 1.34 8 1 8 C0.67 5.36 0.34 2.72 0 0 Z " fill="#F45450" transform="translate(370,234)"/>
</svg>
